<svg width="102" height="68" fill="none" xmlns="http://www.w3.org/2000/svg"><path d="M101.767 0H.425v67.083h101.342V0zm-77.94 58.285C14.028 57.87 5.813 50.09 4.918 40.333a19.869 19.869 0 011.29-9.195c.249-.644.582-1.268.915-1.872.977-1.705 2.163-3.266 3.474-4.72L24.681 8.797 38.7 24.503c1.54 1.727 2.913 3.6 3.952 5.678.291.604.582 1.248.81 1.934.709 2.018 1.04 4.181 1.04 6.324-.001 11.235-9.361 20.304-20.677 19.846zm73.552 4.41H48.891V4.39H97.38v58.305z" fill="#292929"/><path d="M24.637 26.623c-6.595 0-11.94 5.345-11.94 11.94 0 6.594 5.345 11.94 11.94 11.94 6.594 0 11.961-5.347 11.961-11.94 0-6.595-5.367-11.94-11.961-11.94z" fill="#292929"/><path fill="#292929" d="M.422 1.451h50.811V66.78H.422z"/><path fill="#fff" d="M51.238 4.355h46.456v58.07H51.238z"/><g clip-path="url(#clip0_204_3928)"><path d="M33.827 25.992L22.732 36.285l-4.692-5.007-3.104 2.909 7.58 8.09 14.196-13.158-2.885-3.127z" fill="#fff"/></g><g clip-path="url(#clip1_204_3928)"><path d="M83.191 25.992L72.096 36.285l-4.692-5.007-3.104 2.909 7.58 8.09 14.196-13.158-2.885-3.127z" fill="#292929"/></g><defs><clipPath id="clip0_204_3928"><path fill="#fff" transform="translate(14.935 23.227)" d="M0 0h21.776v21.776H0z"/></clipPath><clipPath id="clip1_204_3928"><path fill="#fff" transform="translate(64.3 23.227)" d="M0 0h21.776v21.776H0z"/></clipPath></defs></svg>