<?xml version="1.0" standalone="no"?>
<!DOCTYPE svg PUBLIC "-//W3C//DTD SVG 20010904//EN"
 "http://www.w3.org/TR/2001/REC-SVG-20010904/DTD/svg10.dtd">
<svg version="1.0" xmlns="http://www.w3.org/2000/svg"
 width="512.000000pt" height="512.000000pt" viewBox="0 0 512.000000 512.000000"
 preserveAspectRatio="xMidYMid meet">
<metadata>
Created by potrace 1.14, written by Peter Selinger 2001-2017
</metadata>
<g transform="translate(0.000000,512.000000) scale(0.100000,-0.100000)"
fill="#000000" stroke="none">
<path d="M800 2555 l0 -1165 1755 0 1755 0 0 1165 0 1165 -1755 0 -1755 0 0
-1165z m3360 5 l0 -1010 -840 0 -840 0 0 1010 0 1010 840 0 840 0 0 -1010z
m-2254 559 c142 -160 274 -311 292 -337 268 -369 98 -895 -336 -1045 -291
-100 -619 11 -791 268 -161 242 -157 542 11 776 37 53 550 629 559 629 3 0
122 -131 265 -291z"/>
<path d="M3060 3123 c-280 -314 -319 -361 -360 -444 -47 -92 -63 -171 -63
-299 0 -96 5 -128 26 -195 61 -188 181 -326 362 -416 192 -95 403 -92 605 7
153 76 276 215 336 378 70 193 50 399 -55 575 -33 56 -568 672 -589 678 -4 1
-122 -126 -262 -284z m331 -333 c173 -32 314 -178 337 -346 24 -185 -65 -352
-233 -435 -66 -32 -75 -34 -175 -34 -94 0 -111 3 -164 28 -117 54 -198 146
-231 261 -25 86 -17 212 17 289 64 137 217 240 369 246 15 1 51 -4 80 -9z"/>
<path d="M1568 2790 c-194 -33 -338 -208 -338 -410 0 -130 61 -250 166 -328
224 -166 556 -60 639 206 26 81 18 220 -17 295 -56 120 -182 216 -313 237 -67
11 -70 11 -137 0z"/>
</g>
</svg>
