<svg width="23" height="23" viewBox="0 0 23 23" fill="none" xmlns="http://www.w3.org/2000/svg">
<g clip-path="url(#clip0_204_3786)">
<path d="M15.7653 0C15.8183 0 15.8713 0 15.9273 0C16.0573 1.606 15.4443 2.806 14.6993 3.675C13.9683 4.538 12.9673 5.375 11.3483 5.248C11.2403 3.665 11.8543 2.554 12.5983 1.687C13.2883 0.879 14.5533 0.16 15.7653 0Z" fill="#202121"/>
<path d="M20.6676 16.7157C20.6676 16.7317 20.6676 16.7457 20.6676 16.7607C20.2126 18.1387 19.5636 19.3197 18.7716 20.4157C18.0486 21.4107 17.1626 22.7497 15.5806 22.7497C14.2136 22.7497 13.3056 21.8707 11.9046 21.8467C10.4226 21.8227 9.60756 22.5817 8.25256 22.7727C8.09756 22.7727 7.94256 22.7727 7.79056 22.7727C6.79556 22.6287 5.99256 21.8407 5.40756 21.1307C3.68256 19.0327 2.34956 16.3227 2.10156 12.8547C2.10156 12.5147 2.10156 12.1757 2.10156 11.8357C2.20656 9.35371 3.41256 7.33571 5.01556 6.35771C5.86156 5.83771 7.02456 5.39471 8.31956 5.59271C8.87456 5.67871 9.44156 5.86871 9.93856 6.05671C10.4096 6.23771 10.9986 6.55871 11.5566 6.54171C11.9346 6.53071 12.3106 6.33371 12.6916 6.19471C13.8076 5.79171 14.9016 5.32971 16.3436 5.54671C18.0766 5.80871 19.3066 6.57871 20.0666 7.76671C18.6006 8.69971 17.4416 10.1057 17.6396 12.5067C17.8156 14.6877 19.0836 15.9637 20.6676 16.7157Z" fill="#202121"/>
</g>
<defs>
<clipPath id="clip0_204_3786">
<rect width="22.773" height="22.773" fill="white"/>
</clipPath>
</defs>
</svg>
