<svg width="20" height="22" viewBox="0 0 20 22" fill="none" xmlns="http://www.w3.org/2000/svg">
<g clip-path="url(#clip0_204_3799)">
<path d="M19.6376 8.89941H10.125V12.8325L15.6035 12.8337C15.3814 14.1424 14.6662 15.2579 13.5705 16.0016V16.0024C13.5709 16.0021 13.5714 16.0019 13.5717 16.0016L13.4731 18.3524L16.8329 18.5522C16.8324 18.5526 16.8319 18.553 16.8315 18.5534C18.7357 16.7764 19.8268 14.1495 19.8268 11.046C19.8267 10.2998 19.7605 9.58593 19.6376 8.89941Z" fill="#0085F7"/>
<path d="M13.5712 16.0009C13.5708 16.0011 13.5703 16.0014 13.57 16.0016C12.6624 16.6185 11.4938 16.9794 10.1269 16.9794C7.48512 16.9794 5.24409 15.1845 4.44154 12.765H4.44118C4.4413 12.7654 4.44142 12.7659 4.44154 12.7663L1.63666 12.3184L1.07812 15.3974C2.74492 18.7318 6.17004 21.0197 10.127 21.0197C12.8614 21.0197 15.1587 20.1132 16.8311 18.5525C16.8316 18.5522 16.8321 18.5518 16.8325 18.5513L13.5712 16.0009Z" fill="#00A94B"/>
<path d="M4.12395 10.8135C4.12395 10.1342 4.23624 9.47752 4.44077 8.86015L3.56493 6.22852H1.07675C0.387692 7.60752 0 9.16403 0 10.8135C0 12.4631 0.388899 14.0196 1.07675 15.3986L1.07723 15.3982L4.44077 12.7669C4.44065 12.7666 4.44053 12.7662 4.44041 12.7657C4.23612 12.1488 4.12395 11.4925 4.12395 10.8135Z" fill="#FFBB00"/>
<path d="M10.1275 0.605469C6.17136 0.605469 2.7448 2.89378 1.07812 6.22862L4.44202 8.86025C5.24457 6.44082 7.4856 4.64594 10.1274 4.64594C11.6202 4.64594 12.9571 5.16445 14.0126 6.17748L16.9026 3.26584C15.1474 1.61729 12.8591 0.605469 10.1275 0.605469Z" fill="#FF4031"/>
</g>
<defs>
<clipPath id="clip0_204_3799">
<rect width="20" height="22" fill="white"/>
</clipPath>
</defs>
</svg>
