<svg version="1.0" xmlns="http://www.w3.org/2000/svg" width="682.667" height="682.667" viewBox="0 0 512 512"><path d="M80 256.5V373h351V140H80v116.5zm336-.5v101H248V155h168v101zm-225.4-55.9c14.2 16 27.4 31.1 29.2 33.7 26.8 36.9 9.8 89.5-33.6 104.5-29.1 10-61.9-1.1-79.1-26.8-16.1-24.2-15.7-54.2 1.1-77.6 3.7-5.3 55-62.9 55.9-62.9.3 0 12.2 13.1 26.5 29.1z"/><path d="M306 199.7c-28 31.4-31.9 36.1-36 44.4-4.7 9.2-6.3 17.1-6.3 29.9 0 9.6.5 12.8 2.6 19.5 6.1 18.8 18.1 32.6 36.2 41.6 19.2 9.5 40.3 9.2 60.5-.7 15.3-7.6 27.6-21.5 33.6-37.8 7-19.3 5-39.9-5.5-57.5-3.3-5.6-56.8-67.2-58.9-67.8-.4-.1-12.2 12.6-26.2 28.4zm33.1 33.3c17.3 3.2 31.4 17.8 33.7 34.6 2.4 18.5-6.5 35.2-23.3 43.5-6.6 3.2-7.5 3.4-17.5 3.4-9.4 0-11.1-.3-16.4-2.8-11.7-5.4-19.8-14.6-23.1-26.1-2.5-8.6-1.7-21.2 1.7-28.9 6.4-13.7 21.7-24 36.9-24.6 1.5-.1 5.1.4 8 .9zm-182.3 0c-19.4 3.3-33.8 20.8-33.8 41 0 13 6.1 25 16.6 32.8 22.4 16.6 55.6 6 63.9-20.6 2.6-8.1 1.8-22-1.7-29.5-5.6-12-18.2-21.6-31.3-23.7-6.7-1.1-7-1.1-13.7 0z"/></svg>