<svg width="29" height="29" viewBox="0 0 29 29" fill="none" xmlns="http://www.w3.org/2000/svg">
<g clip-path="url(#clip0_81_862)">
<path d="M22.2303 20.3H2.9C2.51926 20.3004 2.14223 20.2252 1.79069 20.079C1.43915 19.9328 1.12007 19.7184 0.851875 19.4481C0.30939 18.9042 0.00329076 18.1682 0 17.4L0 7.73032C0.00329076 6.9621 0.30939 6.22616 0.851875 5.6822C1.12007 5.41195 1.43915 5.19753 1.79069 5.05131C2.14223 4.90509 2.51926 4.82998 2.9 4.83032H22.2303C22.611 4.82998 22.9881 4.90509 23.3396 5.05131C23.6912 5.19753 24.0102 5.41195 24.2784 5.6822C24.8209 6.22616 25.127 6.9621 25.1303 7.73032V17.4C25.127 18.1682 24.8209 18.9042 24.2784 19.4481C24.0102 19.7184 23.6912 19.9328 23.3396 20.079C22.9881 20.2252 22.611 20.3004 22.2303 20.3ZM2.9 6.7697C2.64439 6.76969 2.39911 6.87061 2.21751 7.0505C2.03592 7.2304 1.9327 7.47472 1.93031 7.73032V17.4C1.93031 17.6572 2.03248 17.9038 2.21433 18.0857C2.39618 18.2675 2.64282 18.3697 2.9 18.3697H22.2303C22.4875 18.3697 22.7341 18.2675 22.916 18.0857C23.0978 17.9038 23.2 17.6572 23.2 17.4V7.73032C23.2 7.47315 23.0978 7.2265 22.916 7.04465C22.7341 6.8628 22.4875 6.76064 22.2303 6.76064L2.9 6.7697Z" fill="#A78F7A"/>
<path d="M26.0989 24.1698H4.82918C4.58934 24.1465 4.36675 24.0348 4.2048 23.8563C4.04284 23.6779 3.95313 23.4456 3.95312 23.2046C3.95313 22.9636 4.04284 22.7313 4.2048 22.5529C4.36675 22.3745 4.58934 22.2627 4.82918 22.2395H26.0989C26.356 22.2395 26.6027 22.1373 26.7845 21.9554C26.9664 21.7736 27.0686 21.5269 27.0686 21.2698V9.66977C27.0555 9.53516 27.0707 9.39931 27.1133 9.27095C27.1559 9.14258 27.2248 9.02454 27.3157 8.9244C27.4066 8.82427 27.5174 8.74425 27.6411 8.68949C27.7647 8.63473 27.8985 8.60645 28.0337 8.60645C28.1689 8.60645 28.3027 8.63473 28.4263 8.68949C28.55 8.74425 28.6608 8.82427 28.7517 8.9244C28.8426 9.02454 28.9116 9.14258 28.9541 9.27095C28.9967 9.39931 29.0119 9.53516 28.9989 9.66977V21.2698C28.9956 22.038 28.6895 22.7739 28.147 23.3179C27.8788 23.5881 27.5597 23.8026 27.2082 23.9488C26.8566 24.095 26.4796 24.1701 26.0989 24.1698Z" fill="#A78F7A"/>
<path d="M12.5689 16.4303C11.8036 16.4303 11.0554 16.2033 10.419 15.7781C9.78266 15.3529 9.28667 14.7486 8.99378 14.0415C8.7009 13.3344 8.62426 12.5563 8.77358 11.8057C8.92289 11.055 9.29144 10.3655 9.83263 9.82433C10.3738 9.28314 11.0633 8.91459 11.814 8.76527C12.5646 8.61596 13.3427 8.69259 14.0498 8.98548C14.7569 9.27837 15.3612 9.77436 15.7864 10.4107C16.2116 11.0471 16.4386 11.7953 16.4386 12.5606C16.4386 13.0688 16.3385 13.572 16.144 14.0415C15.9496 14.511 15.6645 14.9376 15.3052 15.2969C14.9459 15.6562 14.5193 15.9413 14.0498 16.1357C13.5803 16.3302 13.0771 16.4303 12.5689 16.4303ZM12.5689 10.6303C12.1875 10.6303 11.8147 10.7433 11.4974 10.955C11.1802 11.1667 10.9328 11.4676 10.7864 11.8198C10.6401 12.172 10.6013 12.5597 10.675 12.9339C10.7488 13.3081 10.9317 13.652 11.2008 13.9223C11.4699 14.1927 11.813 14.3772 12.1868 14.4527C12.5606 14.5282 12.9485 14.4913 13.3013 14.3466C13.6542 14.2019 13.9563 13.9559 14.1695 13.6396C14.3827 13.3234 14.4974 12.9511 14.4992 12.5697C14.4992 12.0569 14.2961 11.565 13.9344 11.2015C13.5727 10.8381 13.0817 10.6327 12.5689 10.6303Z" fill="#A78F7A"/>
</g>
<defs>
<clipPath id="clip0_81_862">
<rect width="29" height="29" fill="white"/>
</clipPath>
</defs>
</svg>
