<svg width="30" height="30" viewBox="0 0 30 30" fill="none" xmlns="http://www.w3.org/2000/svg">
<path d="M20.9609 14.9878C21.3493 14.9878 21.6641 14.673 21.6641 14.2847C21.6641 13.8963 21.3493 13.5815 20.9609 13.5815C20.5726 13.5815 20.2578 13.8963 20.2578 14.2847C20.2578 14.673 20.5726 14.9878 20.9609 14.9878Z" fill="#A78F7A"/>
<path d="M21.1358 11.009H17.8555C17.4671 11.009 17.1523 11.3238 17.1523 11.7122C17.1523 12.1005 17.4671 12.4153 17.8555 12.4153H21.1358C21.5241 12.4153 21.8389 12.1005 21.8389 11.7122C21.8389 11.3238 21.5241 11.009 21.1358 11.009Z" fill="#A78F7A"/>
<path d="M9.22994 28.8271C8.88119 28.8271 8.52869 28.8046 8.17525 28.7568C4.56212 28.2759 1.78806 25.1756 1.57619 21.3843L1.21337 14.8621C1.17306 14.1309 1.63619 13.4803 2.36744 13.245C3.04244 13.0275 3.57494 12.4696 3.75587 11.79C3.95369 11.0456 4.58087 10.5459 5.31494 10.5459H13.1215C13.8556 10.5459 14.4818 11.0456 14.6806 11.79C14.8615 12.4696 15.394 13.0265 16.0699 13.245C16.7984 13.4803 17.2624 14.129 17.2231 14.8603L16.8481 21.6112C16.7299 23.73 15.724 25.7212 14.0881 27.075C12.7015 28.2225 11.0074 28.8271 9.22994 28.8271ZM5.31587 11.9521C5.20806 11.9521 5.14056 12.06 5.11619 12.1528C4.80869 13.3059 3.94337 14.2153 2.80056 14.5837C2.73025 14.6062 2.61306 14.6737 2.61962 14.7834L2.98244 21.3056C3.15587 24.4237 5.41806 26.9718 8.36275 27.3637C10.1243 27.5981 11.839 27.1106 13.1918 25.9912C14.5268 24.8868 15.3481 23.2621 15.4437 21.5325L15.8187 14.7834C15.8243 14.6812 15.7249 14.6118 15.6377 14.5837C14.4949 14.2153 13.6287 13.3068 13.3212 12.1528C13.2968 12.06 13.2293 11.9521 13.1215 11.9521H5.31587Z" fill="#A78F7A"/>
<path d="M21.5597 19.4531L18.9862 19.4513C18.5981 19.4513 18.2831 19.1353 18.2841 18.7472C18.2841 18.3591 18.6 18.045 18.9881 18.045L21.5616 18.0469C22.7231 18.0478 23.6728 17.0991 23.6728 15.9375V4.6875C23.6728 3.52219 22.7288 2.57812 21.5634 2.57812H4.6875C3.52219 2.57812 2.57813 3.52219 2.57813 4.6875V10.7831C2.57813 11.1713 2.26313 11.4862 1.875 11.4862C1.48687 11.4862 1.17188 11.1713 1.17188 10.7831V4.6875C1.17188 2.74594 2.74594 1.17188 4.6875 1.17188H21.5625C23.5041 1.17188 25.0781 2.74594 25.0781 4.6875V15.9375C25.0781 17.8725 23.4947 19.455 21.5597 19.4531Z" fill="#A78F7A"/>
<path d="M25.3125 25.0781H18.5156C18.1275 25.0781 17.8125 24.7631 17.8125 24.375C17.8125 23.9869 18.1275 23.6719 18.5156 23.6719H25.3125C26.4778 23.6719 27.4219 22.7278 27.4219 21.5625V10.3125C27.4219 9.14719 26.4778 8.20312 25.3125 8.20312H24.375V6.79688H25.3125C27.2541 6.79688 28.8281 8.37094 28.8281 10.3125V21.5625C28.8281 23.5041 27.2541 25.0781 25.3125 25.0781Z" fill="#A78F7A"/>
<path d="M1.89453 5.86032H24.3533V7.26657H1.89453V5.86032Z" fill="#A78F7A"/>
<path d="M24.3516 11.8914H28.1231V13.2976H24.3516V11.8914Z" fill="#A78F7A"/>
</svg>
