<svg width="30" height="30" viewBox="0 0 30 30" fill="none" xmlns="http://www.w3.org/2000/svg">
<path d="M29.9501 16.9996L27.6728 4.08458C27.3633 2.32986 25.6838 1.15392 23.9293 1.46337L4.39791 4.90736C2.64313 5.21675 1.46724 6.89604 1.77664 8.65076L1.94397 9.59986C0.801158 10.0984 0 11.2386 0 12.563V25.3546C0 27.1364 1.44962 28.5861 3.23142 28.5861H22.62C24.4018 28.5861 25.8514 27.1364 25.8514 25.3546V21.0035L27.3288 20.743C28.1788 20.5931 28.9196 20.1212 29.4147 19.4141C29.9098 18.7071 30.0999 17.8495 29.9501 16.9996ZM27.9709 18.4031C27.7459 18.7245 27.4091 18.939 27.0227 19.0072L25.8514 19.2137V18.2091V14.211V12.563C25.8514 10.7811 24.4018 9.33153 22.62 9.33153H3.68652L3.5125 8.34465C3.44434 7.95829 3.53083 7.56852 3.75585 7.24709C3.98088 6.92571 4.31765 6.7112 4.70401 6.64305L24.2354 3.19911C24.3214 3.18395 24.4068 3.17667 24.4912 3.17667C25.1902 3.17667 25.8116 3.67889 25.937 4.39057L28.2143 17.3056C28.2824 17.692 28.1959 18.0818 27.9709 18.4031ZM22.62 26.8235H3.23142C2.42151 26.8235 1.76259 26.1645 1.76259 25.3546V19.0904H24.0888V25.3546C24.0888 26.1645 23.4299 26.8235 22.62 26.8235ZM3.23142 11.0942H22.62C23.4299 11.0942 24.0888 11.7531 24.0888 12.563V13.3297H1.76259V12.563C1.76259 11.7531 2.42151 11.0942 3.23142 11.0942ZM24.0888 15.0923V17.3279H1.76259V15.0923H24.0888Z" fill="#A78F7A"/>
<path d="M8.48101 23.2842H4.48286C3.99615 23.2842 3.60156 23.6788 3.60156 24.1655C3.60156 24.6522 3.99615 25.0468 4.48286 25.0468H8.48101C8.96772 25.0468 9.36231 24.6522 9.36231 24.1655C9.36231 23.6788 8.96772 23.2842 8.48101 23.2842Z" fill="#A78F7A"/>
</svg>
