<svg width="31" height="31" viewBox="0 0 31 31" fill="none" xmlns="http://www.w3.org/2000/svg">
<path d="M11.6252 13.5625C10.5567 13.5625 9.68774 12.6935 9.68774 11.625C9.68774 10.5565 10.5567 9.6875 11.6252 9.6875C12.6938 9.6875 13.5627 10.5565 13.5627 11.625C13.5627 12.6935 12.6938 13.5625 11.6252 13.5625ZM19.3752 21.3135C18.3067 21.3135 17.4377 20.4445 17.4377 19.376C17.4377 18.3074 18.3067 17.4385 19.3752 17.4385C20.4438 17.4385 21.3127 18.3074 21.3127 19.376C21.3127 20.4445 20.4438 21.3135 19.3752 21.3135ZM11.3414 21.0306L21.0289 11.3431C21.4077 10.9643 21.4077 10.3521 21.0289 9.97328C20.6501 9.5945 20.0379 9.5945 19.6591 9.97328L9.97159 19.6608C9.5928 20.0396 9.5928 20.6518 9.97159 21.0306C10.1605 21.2195 10.4085 21.3144 10.6565 21.3144C10.9045 21.3144 11.1525 21.2195 11.3414 21.0306Z" fill="#A78F7A"/>
<path d="M11.6104 29.0653C11.0737 29.0653 10.5341 28.9597 10.0139 28.7437C8.61794 28.1653 7.67438 26.9253 7.49032 25.4257C7.36632 24.4211 6.57873 23.6326 5.57413 23.5095C4.07451 23.3255 2.83354 22.3809 2.25519 20.9859C1.67685 19.5909 1.88707 18.0458 2.81707 16.8552C3.43998 16.0579 3.43998 14.9429 2.81707 14.1456C1.88707 12.955 1.67685 11.4108 2.25519 10.0148C2.83354 8.61887 4.07451 7.6753 5.57413 7.49124C6.57776 7.36821 7.36632 6.58062 7.49032 5.57505C7.67438 4.07543 8.61794 2.83446 10.0139 2.25709C11.4079 1.67777 12.9541 1.88896 14.1447 2.81896C14.9429 3.44187 16.056 3.44187 16.8543 2.81896C18.0449 1.88799 19.589 1.67874 20.985 2.25709C22.381 2.83543 23.3245 4.07543 23.5086 5.57505C23.6326 6.57965 24.4202 7.36821 25.4248 7.49124C26.9244 7.6753 28.1654 8.61984 28.7437 10.0148C29.3221 11.4098 29.1119 12.955 28.1819 14.1456C27.5589 14.9429 27.5589 16.0579 28.1819 16.8552C29.1119 18.0458 29.3221 19.59 28.7437 20.9859C28.1654 22.3819 26.9244 23.3255 25.4248 23.5095C24.4212 23.6326 23.6326 24.4201 23.5086 25.4257C23.3245 26.9253 22.381 28.1663 20.985 28.7437C19.589 29.3211 18.0449 29.1108 16.8543 28.1818C16.056 27.5589 14.9429 27.5589 14.1447 28.1818C13.3978 28.765 12.5114 29.0653 11.6114 29.0653H11.6104ZM11.6036 3.87587C11.3188 3.87587 11.0311 3.93205 10.754 4.04637C10.012 4.35346 9.51016 5.01415 9.41135 5.81143C9.17885 7.70049 7.69763 9.18171 5.80954 9.41421C5.01226 9.51205 4.35157 10.0139 4.04448 10.7559C3.73738 11.499 3.84879 12.3195 4.34382 12.9531C5.51504 14.4536 5.51504 16.5481 4.34382 18.0477C3.84879 18.6813 3.73738 19.5018 4.04448 20.2448C4.35157 20.9869 5.01226 21.4887 5.80954 21.5866C7.69763 21.8191 9.17885 23.3003 9.41135 25.1893C9.51016 25.9866 10.012 26.6463 10.754 26.9544C11.498 27.2605 12.3176 27.1491 12.9521 26.6551C14.4508 25.4838 16.5472 25.4838 18.0458 26.6551C18.6784 27.1491 19.4999 27.2605 20.2439 26.9544C20.986 26.6473 21.4878 25.9866 21.5866 25.1893C21.8191 23.3003 23.3003 21.8191 25.1884 21.5866C25.9857 21.4887 26.6464 20.9869 26.9535 20.2448C27.2606 19.5018 27.1492 18.6813 26.6541 18.0477C25.4829 16.5471 25.4829 14.4527 26.6541 12.9531C27.1492 12.3195 27.2606 11.499 26.9535 10.7559C26.6464 10.0139 25.9857 9.51205 25.1884 9.41421C23.3003 9.18171 21.8191 7.70049 21.5866 5.81143C21.4878 5.01415 20.986 4.35443 20.2439 4.04637C19.4989 3.73927 18.6794 3.84971 18.0458 4.34571C16.5472 5.51693 14.4508 5.51693 12.9521 4.34571C12.5549 4.03571 12.0841 3.87587 11.6036 3.87587Z" fill="#A78F7A"/>
</svg>
