<svg width="29" height="29" viewBox="0 0 29 29" fill="none" xmlns="http://www.w3.org/2000/svg">
<path d="M25.375 13.5938H19.0312C17.0429 13.5938 15.4062 15.2304 15.4062 17.2188C15.4062 19.2071 17.0429 20.8438 19.0312 20.8438H22.6562V23.5625C22.6562 24.06 22.2475 24.4688 21.75 24.4688H7.25C5.75831 24.4688 4.53125 23.2417 4.53125 21.75V8.15625C4.53125 6.66456 5.75831 5.4375 7.25 5.4375H9.0625C9.56003 5.4375 9.96875 5.02878 9.96875 4.53125C9.96875 4.03372 9.56003 3.625 9.0625 3.625H7.25C4.76416 3.625 2.71875 5.67041 2.71875 8.15625V21.75C2.71875 24.2358 4.76416 26.2812 7.25 26.2812H21.75C23.2417 26.2812 24.4688 25.0542 24.4688 23.5625V20.8438H25.375C25.8725 20.8438 26.2812 20.435 26.2812 19.9375V14.5C26.2812 14.0025 25.8725 13.5938 25.375 13.5938ZM24.4688 19.0312H19.0312C18.0371 19.0312 17.2188 18.2129 17.2188 17.2188C17.2188 16.2246 18.0371 15.4062 19.0312 15.4062H24.4688V19.0312Z" fill="#A78F7A"/>
<path d="M6.9248 7.31346C5.91343 7.7548 6.24783 9.06252 7.25105 9.06252H21.7511C22.2486 9.06252 22.6573 9.47124 22.6573 9.96877V10.875C22.6573 11.3726 23.066 11.7813 23.5636 11.7813C24.0611 11.7813 24.4698 11.3726 24.4698 10.875V9.96877C24.4689 9.2483 24.1825 8.55683 23.6723 8.04752C23.163 7.5373 22.4715 7.25093 21.7511 7.25002H21.4611L19.8751 3.28971C19.6911 2.83205 19.1655 2.60368 18.706 2.78221L6.9248 7.31346ZM19.5036 7.25002H12.1357L18.5248 4.79408L19.5036 7.25002Z" fill="#A78F7A"/>
</svg>
