<svg width="32" height="32" viewBox="0 0 32 32" fill="none" xmlns="http://www.w3.org/2000/svg">
<g clip-path="url(#clip0_81_778)">
<path d="M6.79688 19.625V2.9375C6.79688 1.83293 7.69231 0.9375 8.79687 0.9375H29.0469C30.1514 0.9375 31.0469 1.83293 31.0469 2.9375V23.1875C31.0469 24.2921 30.1514 25.1875 29.0469 25.1875H26.7344" stroke="#A78F7A" stroke-width="1.5" stroke-miterlimit="10"/>
<path d="M2.75811 21.9444C1.75909 21.9444 0.949219 22.7542 0.949219 23.7533V27.0694C0.949219 28.1739 1.84465 29.0694 2.94922 29.0694H6.11444C6.29513 29.0694 6.47498 29.0939 6.64909 29.1422L12.6597 30.8096C14.2801 31.2591 16.0085 31.1057 17.5243 30.3779L20.0995 29.1414C20.3696 29.0117 20.6655 28.9444 20.9652 28.9444H23.3605C24.7354 28.9444 25.9374 28.2045 26.5902 27.1011C27.1527 26.1505 26.215 25.1944 25.1105 25.1944H18.0355C17.5754 25.1944 17.1294 25.0358 16.7727 24.7452L12.9961 21.67C12.9664 21.6459 12.9492 21.6097 12.9492 21.5715V21.5715C12.9492 21.5013 13.0061 21.4444 13.0763 21.4444H15.048C16.4229 21.4444 17.625 20.7045 18.2778 19.6011C18.8402 18.6505 17.9026 17.6944 16.798 17.6944H10.0751C9.6676 17.6944 9.2698 17.8189 8.93497 18.0512L3.78933 21.6216C3.4865 21.8318 3.1267 21.9444 2.75811 21.9444V21.9444Z" stroke="#A78F7A" stroke-width="1.5" stroke-miterlimit="10"/>
<path d="M28.2344 21.4375C27.7974 21.4375 27.3993 21.2715 27.0996 20.999C26.5249 20.4766 25.9173 19.75 25.1406 19.75V19.75C24.364 19.75 23.7563 20.4766 23.1816 20.999C22.8819 21.2715 22.4838 21.4375 22.0469 21.4375" stroke="#A78F7A" stroke-width="1.5" stroke-miterlimit="10"/>
<path d="M20.4219 0.9375H17.8594C16.7548 0.9375 15.8594 1.83293 15.8594 2.9375V7.375C15.8594 8.47957 16.7548 9.375 17.8594 9.375H20.4219C21.5264 9.375 22.4219 8.47957 22.4219 7.375V2.9375C22.4219 1.83293 21.5264 0.9375 20.4219 0.9375Z" stroke="#A78F7A" stroke-width="1.5" stroke-miterlimit="10"/>
</g>
<defs>
<clipPath id="clip0_81_778">
<rect width="32" height="32" rx="1" fill="white"/>
</clipPath>
</defs>
</svg>
