<svg width="29" height="29" viewBox="0 0 29 29" fill="none" xmlns="http://www.w3.org/2000/svg">
<path d="M23.5625 0.90625H5.4375C4.23612 0.907497 3.0843 1.3853 2.2348 2.2348C1.3853 3.0843 0.907497 4.23612 0.90625 5.4375V18.125C0.90625 18.3654 1.00173 18.5959 1.17168 18.7658C1.34164 18.9358 1.57215 19.0312 1.8125 19.0312C2.05285 19.0312 2.28336 18.9358 2.45332 18.7658C2.62327 18.5959 2.71875 18.3654 2.71875 18.125V5.4375C2.71957 4.71669 3.00627 4.02564 3.51595 3.51595C4.02564 3.00627 4.71669 2.71957 5.4375 2.71875H9.0625V9.0625C9.06332 9.78331 9.35002 10.4744 9.8597 10.984C10.3694 11.4937 11.0604 11.7804 11.7812 11.7812H17.2188C17.9396 11.7804 18.6306 11.4937 19.1403 10.984C19.65 10.4744 19.9367 9.78331 19.9375 9.0625V2.71875H23.5625C24.2833 2.71957 24.9744 3.00627 25.484 3.51595C25.9937 4.02564 26.2804 4.71669 26.2812 5.4375V23.5625C26.2804 24.2833 25.9937 24.9744 25.484 25.484C24.9744 25.9937 24.2833 26.2804 23.5625 26.2812H10.875C10.6346 26.2812 10.4041 26.3767 10.2342 26.5467C10.0642 26.7166 9.96875 26.9471 9.96875 27.1875C9.96875 27.4279 10.0642 27.6584 10.2342 27.8283C10.4041 27.9983 10.6346 28.0938 10.875 28.0938H23.5625C24.7639 28.0925 25.9157 27.6147 26.7652 26.7652C27.6147 25.9157 28.0925 24.7639 28.0938 23.5625V5.4375C28.0925 4.23612 27.6147 3.0843 26.7652 2.2348C25.9157 1.3853 24.7639 0.907497 23.5625 0.90625ZM18.125 9.0625C18.1247 9.30276 18.0291 9.5331 17.8592 9.703C17.6894 9.87289 17.459 9.96846 17.2188 9.96875H11.7812C11.541 9.96846 11.3106 9.87289 11.1408 9.703C10.9709 9.5331 10.8753 9.30276 10.875 9.0625V2.71875H18.125V9.0625Z" fill="#A78F7A"/>
</svg>
