<svg width="183" height="50" fill="none" xmlns="http://www.w3.org/2000/svg"><path d="M56.911 43.19a2.78 2.78 0 00-1.16-.227h-2.186v6.265h.84v-2.512h1.328c.478 0 .883-.072 1.217-.215.334-.146.591-.358.767-.636.176-.277.263-.617.263-1.02 0-.394-.093-.73-.284-1.011a1.807 1.807 0 00-.785-.644zm-.134 2.512c-.242.184-.582.277-1.017.277h-1.354v-2.27h1.363c.42 0 .755.101 1.002.304.245.203.367.49.367.856 0 .37-.12.648-.36.833zm12.183-2.739l-2.464 6.265h.922l.593-1.567h2.793l.623 1.567h.949l-2.542-6.265h-.874zm-.71 3.959l1.128-2.918 1.181 2.918H68.25zm16.726-.704c.251-.153.445-.35.582-.588.137-.239.206-.517.206-.83 0-.375-.084-.7-.254-.975a1.653 1.653 0 00-.715-.635c-.308-.152-.675-.227-1.098-.227h-2.31v6.265h.842v-2.602h.951l1.844 2.602h1.03l-1.955-2.709c.335-.048.627-.146.877-.301zm-2.747-.31V43.69h1.39c.436 0 .761.101.976.304.215.203.322.484.322.839 0 .34-.12.602-.364.79-.242.188-.582.283-1.017.283h-1.307zm13.093 3.319h.841v-2.762h2.676v-.76h-2.676v-1.97h2.945v-.772h-3.786v6.264zm17.284-2.431c0 .594-.146 1.038-.441 1.328-.296.292-.692.435-1.191.435-.501 0-.901-.143-1.196-.435-.298-.29-.447-.734-.447-1.328v-3.833h-.842v3.866c0 .471.093.898.278 1.283.185.382.462.686.829.913.367.224.826.337 1.378.337.549 0 1.005-.114 1.372-.34a2.16 2.16 0 00.829-.913 2.9 2.9 0 00.278-1.28v-3.866h-.847v3.833zm13.811.128l-2.449-3.961h-.821v6.264h.77l-.009-4.853 2.136 3.448h.647l2.074-3.388-.009 4.793h.823v-6.264h-.797l-2.365 3.961zM.145 5.93h8.594v25.8h5.817V5.93h8.594V.644H.145V5.93zM66.39 23.45L59.75.644h-5.928l-6.64 22.827L40.876.644h-6.041l9.393 31.087h5.907l6.596-22.472 6.506 22.472h5.95L78.558.644h-5.882L66.39 23.45zM99.925.644H94.13v31.087h5.796V.644zm38.807 21.406L124.031.645h-5.617v31.087h5.638V10.059l14.701 21.672h5.62V.644h-5.641v21.407zm42.226-4.54c-1.363-1.369-3.529-2.49-6.506-3.364l-3.153-.934c-1.438-.43-2.563-.838-3.377-1.232-.815-.39-1.387-.82-1.721-1.289-.332-.465-.499-1.023-.499-1.676 0-.857.245-1.593.734-2.208.486-.614 1.169-1.086 2.044-1.41.871-.326 1.894-.49 3.063-.49.991 0 1.975.12 2.953.355a12.82 12.82 0 012.73.99 9.22 9.22 0 012.198 1.498l2.867-4.218c-1.184-1.083-2.711-1.939-4.576-2.577C175.851.319 173.828 0 171.653 0c-1.658 0-3.192.227-4.597.677-1.408.454-2.625 1.092-3.651 1.921a8.89 8.89 0 00-2.398 2.942c-.573 1.133-.856 2.39-.856 3.764 0 2.103.68 3.875 2.043 5.32 1.36 1.443 3.559 2.594 6.595 3.45l2.999.869c2.159.605 3.636 1.258 4.429 1.954.791.695 1.187 1.545 1.187 2.553 0 1.304-.572 2.297-1.721 2.986-1.148.69-2.646 1.032-4.495 1.032a14.73 14.73 0 01-3.344-.388 15.329 15.329 0 01-3.162-1.1c-.994-.472-1.844-1.036-2.554-1.686l-2.798 4.373c1.45 1.2 3.231 2.121 5.34 2.765 2.109.645 4.275.967 6.494.967 2.458 0 4.57-.406 6.339-1.211 1.769-.805 3.129-1.927 4.078-3.365.946-1.435 1.42-3.094 1.42-4.973 0-2.192-.68-3.97-2.043-5.34z" fill="#000"/></svg>