<svg width="183" height="33" fill="none" xmlns="http://www.w3.org/2000/svg"><path d="M0 5.93h8.594v25.8h5.817V5.93h8.594V.644H0V5.93zm66.245 17.52L59.605.644h-5.927l-6.64 22.827L40.73.644h-6.04l9.393 31.087h5.907l6.595-22.472 6.506 22.472h5.951L78.413.644h-5.882L66.245 23.45zM99.78.644h-5.796v31.087h5.797V.644zm38.807 21.406L123.887.645h-5.617v31.087h5.638V10.059l14.7 21.672h5.62V.644h-5.641v21.407zm42.226-4.54c-1.363-1.369-3.529-2.49-6.506-3.364l-3.153-.934c-1.438-.43-2.562-.838-3.377-1.232-.814-.39-1.387-.82-1.721-1.289-.331-.465-.498-1.023-.498-1.676 0-.857.244-1.593.734-2.208.486-.614 1.169-1.086 2.043-1.41.871-.326 1.894-.49 3.064-.49.99 0 1.975.12 2.953.355a12.83 12.83 0 012.729.99c.845.421 1.579.92 2.199 1.498l2.867-4.218c-1.185-1.083-2.712-1.939-4.576-2.577C175.706.319 173.684 0 171.509 0c-1.659 0-3.192.227-4.597.677-1.408.454-2.625 1.092-3.651 1.921a8.893 8.893 0 00-2.399 2.942c-.573 1.133-.856 2.39-.856 3.764 0 2.103.68 3.875 2.043 5.32 1.361 1.443 3.559 2.594 6.596 3.45l2.998.869c2.16.605 3.636 1.258 4.43 1.954.79.695 1.187 1.545 1.187 2.553 0 1.304-.573 2.297-1.721 2.986-1.149.69-2.646 1.032-4.496 1.032a14.72 14.72 0 01-3.344-.388 15.35 15.35 0 01-3.162-1.1c-.993-.472-1.843-1.036-2.553-1.686l-2.798 4.373c1.449 1.2 3.23 2.121 5.339 2.765a22.09 22.09 0 006.495.967c2.458 0 4.57-.406 6.339-1.211 1.769-.805 3.129-1.927 4.077-3.365.946-1.435 1.42-3.094 1.42-4.973.001-2.192-.68-3.97-2.043-5.34z" fill="#000"/></svg>