<svg width="183" height="50" viewBox="0 0 183 50" fill="none" xmlns="http://www.w3.org/2000/svg">
<path d="M56.9113 43.1897C56.5772 43.0375 56.1894 42.963 55.7509 42.963H53.5645V49.2276H54.4057V46.7158H55.7333C56.2106 46.7158 56.6163 46.6441 56.9503 46.5009C57.2844 46.3547 57.541 46.1429 57.7171 45.8655C57.8932 45.5882 57.9795 45.2481 57.9795 44.8453C57.9795 44.4514 57.8871 44.1145 57.6961 43.834C57.508 43.5537 57.2453 43.3388 56.9113 43.1897ZM56.7772 45.7015C56.5355 45.8865 56.1954 45.9789 55.76 45.9789H54.4057V43.7088H55.769C56.1896 43.7088 56.5237 43.8103 56.7714 44.0132C57.0159 44.216 57.1382 44.5023 57.1382 44.8694C57.138 45.2392 57.0186 45.5165 56.7772 45.7015Z" fill="black"/>
<path d="M68.9601 42.963L66.4961 49.2276H67.4179L68.0115 47.6615H70.8036L71.4271 49.2276H72.3757L69.8342 42.963H68.9601ZM68.2503 46.9215L69.3779 44.004L70.5593 46.9215H68.2503Z" fill="black"/>
<path d="M84.9764 46.2175C85.227 46.0653 85.4209 45.8684 85.5582 45.6297C85.6954 45.3911 85.7639 45.1135 85.7639 44.8004C85.7639 44.4247 85.6805 44.0995 85.5104 43.8251C85.3433 43.5506 85.1047 43.3388 84.7946 43.1897C84.4873 43.0375 84.1204 42.963 83.6966 42.963H81.3877V49.2276H82.229V46.6263H83.1805L85.0242 49.2276H86.0534L84.0994 46.519C84.4337 46.471 84.7261 46.3725 84.9764 46.2175ZM82.2292 45.9073V43.6909H83.6195C84.0551 43.6909 84.3802 43.7925 84.5949 43.9953C84.8095 44.1982 84.9171 44.4787 84.9171 44.8335C84.9171 45.1736 84.7977 45.436 84.5531 45.6239C84.3115 45.8118 83.9714 45.9073 83.5358 45.9073H82.2292Z" fill="black"/>
<path d="M95.3223 49.2273H96.1633V46.4652H98.8391V45.7044H96.1633V43.7356H99.1076V42.963H95.3223V49.2273Z" fill="black"/>
<path d="M112.606 46.7963C112.606 47.3899 112.46 47.8344 112.165 48.1239C111.869 48.4162 111.473 48.5594 110.974 48.5594C110.473 48.5594 110.073 48.4162 109.778 48.1239C109.48 47.8344 109.331 47.3901 109.331 46.7963V42.963H108.489V46.8291C108.489 47.3004 108.582 47.7271 108.767 48.1118C108.952 48.4936 109.229 48.798 109.596 49.0247C109.963 49.2485 110.422 49.3619 110.974 49.3619C111.523 49.3619 111.979 49.2485 112.346 49.0218C112.713 48.7951 112.991 48.491 113.175 48.1089C113.36 47.7271 113.453 47.3004 113.453 46.8291V42.963H112.606L112.606 46.7963Z" fill="black"/>
<path d="M126.417 46.9244L123.968 42.963H123.147V49.2273H123.917L123.908 44.374L126.044 47.8224H126.691L128.765 44.4336L128.756 49.2273H129.579V42.963H128.782L126.417 46.9244Z" fill="black"/>
<path d="M0.144531 5.93031H8.73877V31.7309H14.5559V5.93031H23.1499V0.644287H0.144531V5.93031Z" fill="black"/>
<path d="M66.3897 23.4497L59.7494 0.644287H53.822L47.1817 23.4707L40.8757 0.644287H34.835L44.2285 31.7309H50.1351L56.7306 9.25927L63.2366 31.7309H69.1878L78.5577 0.644287H72.675L66.3897 23.4497Z" fill="black"/>
<path d="M99.9251 0.644287H94.1289V31.7309H99.9251V0.644287Z" fill="black"/>
<path d="M138.732 22.0508L124.031 0.644287H118.414V31.7309H124.052V10.0588L138.753 31.7309H144.373V0.644287H138.732V22.0508Z" fill="black"/>
<path d="M180.958 17.5105C179.595 16.1412 177.429 15.0197 174.452 14.1456L171.299 13.2119C169.861 12.7823 168.736 12.3738 167.922 11.9799C167.107 11.5892 166.535 11.1596 166.201 10.6912C165.869 10.2259 165.702 9.66804 165.702 9.01464C165.702 8.1584 165.947 7.42179 166.436 6.80723C166.922 6.19267 167.605 5.72137 168.48 5.39624C169.351 5.07111 170.374 4.9071 171.543 4.9071C172.534 4.9071 173.518 5.02649 174.496 5.26214C175.472 5.50068 176.385 5.82895 177.226 6.25248C178.07 6.67313 178.804 7.17119 179.424 7.75006L182.291 3.53205C181.107 2.44909 179.58 1.59309 177.715 0.954649C175.851 0.319343 173.828 0 171.653 0C169.995 0 168.461 0.226719 167.056 0.67727C165.648 1.13072 164.431 1.76916 163.405 2.59839C162.376 3.42762 161.577 4.40903 161.007 5.53975C160.434 6.67336 160.151 7.92926 160.151 9.30431C160.151 11.4073 160.831 13.1793 162.194 14.6231C163.554 16.0669 165.753 17.2184 168.789 18.0746L171.788 18.9427C173.947 19.5483 175.424 20.2015 176.217 20.8966C177.008 21.5917 177.404 22.4419 177.404 23.4501C177.404 24.7538 176.832 25.747 175.683 26.4361C174.535 27.1252 173.037 27.4682 171.188 27.4682C170.075 27.4682 168.962 27.3399 167.844 27.0803C166.728 26.8208 165.672 26.454 164.682 25.9795C163.688 25.5082 162.838 24.9443 162.128 24.2941L159.33 28.6672C160.78 29.8664 162.561 30.7882 164.67 31.4325C166.779 32.0769 168.945 32.3989 171.164 32.3989C173.622 32.3989 175.734 31.9932 177.503 31.1879C179.272 30.3825 180.632 29.2607 181.581 27.823C182.527 26.3881 183.001 24.7294 183.001 22.8503C183.001 20.6576 182.321 18.8797 180.958 17.5105Z" fill="black"/>
</svg>
