<svg width="183" height="33" viewBox="0 0 183 33" fill="none" xmlns="http://www.w3.org/2000/svg">
<path d="M0 5.93031H8.59424V31.7309H14.4114V5.93031H23.0054V0.644287H0V5.93031Z" fill="black"/>
<path d="M66.2452 23.4497L59.6048 0.644287H53.6775L47.0372 23.4707L40.7311 0.644287H34.6904L44.084 31.7309H49.9906L56.5861 9.25927L63.092 31.7309H69.0433L78.4132 0.644287H72.5305L66.2452 23.4497Z" fill="black"/>
<path d="M99.7805 0.644287H93.9844V31.7309H99.7805V0.644287Z" fill="black"/>
<path d="M138.587 22.0508L123.887 0.644287H118.27V31.7309H123.908V10.0588L138.608 31.7309H144.228V0.644287H138.587V22.0508Z" fill="black"/>
<path d="M180.813 17.5105C179.45 16.1412 177.284 15.0197 174.307 14.1456L171.154 13.2119C169.716 12.7823 168.592 12.3738 167.777 11.9799C166.963 11.5892 166.39 11.1596 166.056 10.6912C165.725 10.2259 165.558 9.66804 165.558 9.01464C165.558 8.1584 165.802 7.42179 166.292 6.80723C166.778 6.19266 167.461 5.72137 168.335 5.39624C169.206 5.07111 170.229 4.9071 171.399 4.9071C172.389 4.9071 173.374 5.02649 174.352 5.26214C175.327 5.50068 176.24 5.82895 177.081 6.25248C177.926 6.67313 178.66 7.17119 179.28 7.75006L182.147 3.53205C180.962 2.44909 179.435 1.59309 177.571 0.954649C175.706 0.319343 173.684 0 171.509 0C169.85 0 168.317 0.226719 166.912 0.67727C165.504 1.13072 164.287 1.76916 163.261 2.59839C162.232 3.42762 161.432 4.40903 160.862 5.53975C160.289 6.67336 160.006 7.92926 160.006 9.30431C160.006 11.4073 160.686 13.1793 162.049 14.6231C163.41 16.0669 165.608 17.2184 168.645 18.0746L171.643 18.9427C173.803 19.5483 175.279 20.2015 176.073 20.8966C176.863 21.5917 177.26 22.4419 177.26 23.4501C177.26 24.7538 176.687 25.747 175.539 26.4361C174.39 27.1252 172.893 27.4682 171.043 27.4682C169.931 27.4682 168.818 27.3399 167.699 27.0803C166.583 26.8208 165.528 26.454 164.537 25.9795C163.544 25.5082 162.694 24.9443 161.984 24.2941L159.186 28.6672C160.635 29.8664 162.416 30.7882 164.525 31.4325C166.634 32.0769 168.8 32.3989 171.02 32.3989C173.478 32.3989 175.59 31.9932 177.359 31.1879C179.128 30.3825 180.488 29.2607 181.436 27.823C182.382 26.3881 182.856 24.7294 182.856 22.8503C182.857 20.6576 182.176 18.8797 180.813 17.5105Z" fill="black"/>
</svg>
