<svg viewBox="0 0 24 24"  xmlns="http://www.w3.org/2000/svg" style="display:none">

	<symbol viewBox="0 0 30 30" id="user">
		<path d="M25.6066 19.3934C23.9729 17.7596 22.0283 16.5502 19.9066 15.8181C22.179 14.253 23.6719 11.6337 23.6719 8.67188C23.6719 3.89021 19.7817 0 15 0C10.2183 0 6.32812 3.89021 6.32812 8.67188C6.32812 11.6337 7.82103 14.253 10.0935 15.8181C7.9718 16.5502 6.02719 17.7596 4.39342 19.3934C1.56029 22.2265 0 25.9934 0 30H2.34375C2.34375 23.0213 8.02131 17.3438 15 17.3438C21.9787 17.3438 27.6562 23.0213 27.6562 30H30C30 25.9934 28.4397 22.2265 25.6066 19.3934ZM15 15C11.5107 15 8.67188 12.1613 8.67188 8.67188C8.67188 5.1825 11.5107 2.34375 15 2.34375C18.4893 2.34375 21.3281 5.1825 21.3281 8.67188C21.3281 12.1613 18.4893 15 15 15Z" fill="currentColor"/>
	</symbol>

	<symbol viewBox="0 0 35 35" id="cart">
		<path d="M3.28125 4.37499H5.55625C5.88336 4.37302 6.20051 4.48746 6.45098 4.69786C6.70146 4.90825 6.86892 5.20089 6.92344 5.52343L7.65625 9.99687V10.0625L9.84375 23.1875C9.89488 23.4383 10.0323 23.6632 10.2322 23.823C10.432 23.9829 10.6816 24.0677 10.9375 24.0625H28.4375C28.6874 24.0698 28.9322 23.9913 29.1312 23.84C29.3302 23.6888 29.4714 23.4739 29.5312 23.2312L32.8125 10.1062C32.8531 9.94247 32.8552 9.77153 32.8187 9.6068C32.7822 9.44206 32.7081 9.288 32.6022 9.15667C32.4963 9.02533 32.3614 8.92028 32.2082 8.84973C32.0549 8.77918 31.8874 8.74504 31.7188 8.74999H9.67969L9.07812 5.17343C8.94271 4.33792 8.5136 3.57816 7.86799 3.03079C7.22239 2.48343 6.40266 2.1844 5.55625 2.18749H3.28125C2.99117 2.18749 2.71297 2.30273 2.50785 2.50785C2.30273 2.71296 2.1875 2.99116 2.1875 3.28124C2.1875 3.57132 2.30273 3.84952 2.50785 4.05464C2.71297 4.25976 2.99117 4.37499 3.28125 4.37499ZM30.3187 10.9375L27.5844 21.875H11.8672L10.0406 10.9375H30.3187Z" fill="currentColor"/>
		<path d="M26.25 26.25C25.601 26.25 24.9666 26.4424 24.427 26.803C23.8874 27.1635 23.4669 27.676 23.2185 28.2756C22.9702 28.8751 22.9052 29.5349 23.0318 30.1714C23.1584 30.8079 23.4709 31.3926 23.9298 31.8514C24.3887 32.3103 24.9734 32.6228 25.6099 32.7495C26.2464 32.8761 26.9061 32.8111 27.5057 32.5627C28.1053 32.3144 28.6177 31.8938 28.9783 31.3542C29.3388 30.8146 29.5313 30.1802 29.5313 29.5312C29.5313 28.661 29.1855 27.8264 28.5702 27.2111C27.9548 26.5957 27.1202 26.25 26.25 26.25ZM26.25 30.625C26.0337 30.625 25.8222 30.5609 25.6423 30.4407C25.4625 30.3205 25.3223 30.1497 25.2395 29.9498C25.1567 29.75 25.1351 29.53 25.1773 29.3179C25.2195 29.1057 25.3236 28.9108 25.4766 28.7579C25.6296 28.6049 25.8245 28.5007 26.0366 28.4585C26.2488 28.4163 26.4687 28.438 26.6686 28.5208C26.8684 28.6035 27.0392 28.7437 27.1594 28.9236C27.2796 29.1035 27.3438 29.3149 27.3438 29.5312C27.3438 29.8213 27.2285 30.0995 27.0234 30.3046C26.8183 30.5098 26.5401 30.625 26.25 30.625Z" fill="currentColor"/>
		<path d="M9.84375 29.5312C9.84375 30.1802 10.0362 30.8146 10.3967 31.3542C10.7573 31.8938 11.2697 32.3144 11.8693 32.5627C12.4689 32.8111 13.1286 32.8761 13.7651 32.7495C14.4016 32.6228 14.9863 32.3103 15.4452 31.8514C15.9041 31.3926 16.2166 30.8079 16.3432 30.1714C16.4698 29.5349 16.4048 28.8751 16.1565 28.2756C15.9081 27.676 15.4876 27.1635 14.948 26.803C14.4084 26.4424 13.774 26.25 13.125 26.25C12.2548 26.25 11.4202 26.5957 10.8048 27.2111C10.1895 27.8264 9.84375 28.661 9.84375 29.5312ZM14.2188 29.5312C14.2188 29.7476 14.1546 29.959 14.0344 30.1389C13.9142 30.3188 13.7434 30.459 13.5436 30.5417C13.3437 30.6245 13.1238 30.6462 12.9116 30.604C12.6995 30.5618 12.5046 30.4576 12.3516 30.3046C12.1986 30.1517 12.0945 29.9568 12.0523 29.7446C12.0101 29.5325 12.0317 29.3125 12.1145 29.1127C12.1973 28.9128 12.3375 28.742 12.5173 28.6218C12.6972 28.5016 12.9087 28.4375 13.125 28.4375C13.4151 28.4375 13.6933 28.5527 13.8984 28.7579C14.1035 28.963 14.2188 29.2412 14.2188 29.5312Z" fill="currentColor"/>
	</symbol>

	<symbol viewBox="0 0 20 20" id="search">
		<path d="M19.361 18.2168L14.601 13.2662C15.8249 11.8113 16.4954 9.98069 16.4954 8.07499C16.4954 3.62251 12.8729 0 8.42045 0C3.96797 0 0.345459 3.62251 0.345459 8.07499C0.345459 12.5275 3.96797 16.15 8.42045 16.15C10.092 16.15 11.6849 15.6458 13.0467 14.6888L17.8429 19.677C18.0434 19.8852 18.313 20 18.602 20C18.8755 20 19.1349 19.8957 19.3319 19.7061C19.7504 19.3034 19.7637 18.6357 19.361 18.2168ZM8.42045 2.10652C11.7115 2.10652 14.3889 4.78391 14.3889 8.07499C14.3889 11.3661 11.7115 14.0435 8.42045 14.0435C5.12937 14.0435 2.45198 11.3661 2.45198 8.07499C2.45198 4.78391 5.12937 2.10652 8.42045 2.10652Z" fill="currentColor"/>
	</symbol>

	<symbol viewBox="0 0 8 8" id="drop-down-arrow">
		<path d="M3.99831 4.7706L6.99122 1.77782C7.07343 1.69541 7.18335 1.65008 7.30055 1.65008C7.41782 1.65008 7.52767 1.69541 7.61002 1.77782L7.87213 2.04006C7.9546 2.12234 8 2.23232 8 2.34952C8 2.46673 7.9546 2.57658 7.87213 2.65892L4.30881 6.2223C4.22621 6.30497 4.11584 6.35024 3.9985 6.34991C3.88065 6.35024 3.77041 6.30503 3.68774 6.2223L0.127871 2.66224C0.0453988 2.5799 5.23104e-07 2.47004 5.24503e-07 2.35277C5.259e-07 2.23557 0.0453988 2.12572 0.127871 2.04331L0.389984 1.78113C0.560586 1.61053 0.838309 1.61053 1.00885 1.78113L3.99831 4.7706Z" fill="currentColor"/>
	</symbol>

	<symbol viewBox="0 0 14 14" id="plus">
		<path d="M7.87346 6.12654V0H6.12654V6.12654H0V7.87346H6.12654V14H7.87346V7.87346H14V6.12654H7.87346Z" fill="currentColor"/>
	</symbol>

	<symbol viewBox="0 0 26 9" id="arrow-prev">
		<path fill-rule="evenodd" clip-rule="evenodd" d="M2.46953 5.1L4.99144 7.57147L4.15152 8.42853L0.142822 4.5L4.15152 0.571472L4.99144 1.42853L2.46953 3.9H26.0001V5.1H2.46953Z" fill="currentColor"/>
	</symbol>

	<symbol viewBox="0 0 26 9" id="arrow-next">
		<path fill-rule="evenodd" clip-rule="evenodd" d="M23.5307 5.1L21.0088 7.57147L21.8487 8.42853L25.8574 4.5L21.8487 0.571472L21.0088 1.42853L23.5307 3.9H0.000190735V5.1H23.5307Z" fill="currentColor"/>
	</symbol>

	<symbol viewBox="0 0 18 18" id="arrow-up-right">
		<path fill-rule="evenodd" clip-rule="evenodd" d="M10.649 0.188965H17.9446V7.48456H15.9446V3.60318L2.06265 17.4852L0.648438 16.071L14.5304 2.18896H10.649V0.188965Z" fill="currentColor"/>
	</symbol>

	<symbol viewBox="0 0 47.971 47.971" id="close">
		<path fill="currentColor" d="M28.228,23.986L47.092,5.122c1.172-1.171,1.172-3.071,0-4.242c-1.172-1.172-3.07-1.172-4.242,0L23.986,19.744L5.121,0.88c-1.172-1.172-3.07-1.172-4.242,0c-1.172,1.171-1.172,3.071,0,4.242l18.865,18.864L0.879,42.85c-1.172,1.171-1.172,3.071,0,4.242C1.465,47.677,2.233,47.97,3,47.97s1.535-0.293,2.121-0.879l18.865-18.864L42.85,47.091c0.586,0.586,1.354,0.879,2.121,0.879s1.535-0.293,2.121-0.879c1.172-1.171,1.172-3.071,0-4.242L28.228,23.986z"/>
	</symbol>

	<symbol viewBox="0 0 30 30" id="close-2">
		<path d="M30 2.35703L27.643 0L15 12.6435L2.35703 0L0 2.35703L12.643 15L0 27.643L2.35703 30L15 17.357L27.643 30L30 27.643L17.357 15L30 2.35703Z" fill="currentColor"/>
	</symbol>

	<symbol viewBox="0 0 16 16" id="star">
		<path d="M0.039835 5.93167C0.141061 5.61855 0.418784 5.39616 0.747355 5.36655L5.21051 4.96129L6.97536 0.830485C7.10549 0.52775 7.40185 0.331787 7.73113 0.331787C8.06041 0.331787 8.35677 0.52775 8.4869 0.831193L10.2518 4.96129L14.7156 5.36655C15.0436 5.39687 15.3206 5.61855 15.4224 5.93167C15.5242 6.24478 15.4302 6.58822 15.1821 6.80471L11.8085 9.76339L12.8033 14.1455C12.8761 14.4677 12.751 14.8007 12.4837 14.994C12.34 15.0978 12.1719 15.1507 12.0023 15.1507C11.8562 15.1507 11.7112 15.1113 11.581 15.0334L7.73113 12.7325L3.88265 15.0334C3.60104 15.2028 3.24604 15.1874 2.97929 14.994C2.71183 14.8002 2.58689 14.467 2.65968 14.1455L3.65448 9.76339L0.280867 6.8053C0.0327559 6.58822 -0.0619812 6.24537 0.039835 5.93167Z" fill="currentColor"/>
	</symbol>

	<symbol viewBox="0 0 20 20" id="facebook">
		<path d="M11.5482 20V10.8777H14.6089L15.0681 7.32156H11.5482V5.05147C11.5482 4.0222 11.8329 3.32076 13.3105 3.32076L15.192 3.31999V0.13923C14.8667 0.0969453 13.7497 0 12.4497 0C9.73512 0 7.87666 1.65697 7.87666 4.69927V7.32156H4.80664V10.8777H7.87666V20H11.5482Z" fill="currentColor"/>
	</symbol>
	
	<symbol viewBox="0 0 19 19" id="youtube">
		<path d="M15.0539 2.77734H3.94606C1.76671 2.77734 0 4.54405 0 6.7234V12.2762C0 14.4555 1.76671 16.2222 3.94606 16.2222H15.0539C17.2333 16.2222 19 14.4555 19 12.2762V6.7234C19 4.54405 17.2333 2.77734 15.0539 2.77734ZM12.3853 9.76995L7.18973 12.2479C7.05129 12.3139 6.89138 12.213 6.89138 12.0596V6.94884C6.89138 6.7933 7.0555 6.69249 7.19422 6.7628L12.3897 9.39563C12.5442 9.4739 12.5415 9.69543 12.3853 9.76995Z" fill="currentColor"/>
	</symbol>
	
	<symbol viewBox="0 0 19 19" id="twitter">
		<path d="M19 3.60881C18.2934 3.91875 17.5406 4.12419 16.7556 4.22394C17.5631 3.74181 18.1794 2.98419 18.4692 2.071C17.7163 2.51987 16.8851 2.83694 15.9992 3.01388C15.2843 2.25269 14.2654 1.78125 13.1539 1.78125C10.9974 1.78125 9.26131 3.53163 9.26131 5.67744C9.26131 5.98619 9.28744 6.28306 9.35156 6.56569C6.11325 6.40775 3.24781 4.85569 1.32287 2.49138C0.986812 3.07444 0.789688 3.74181 0.789688 4.46025C0.789688 5.80925 1.48438 7.00506 2.51988 7.69737C1.89406 7.6855 1.28013 7.50381 0.76 7.21763C0.76 7.2295 0.76 7.24494 0.76 7.26038C0.76 9.15325 2.11019 10.7255 3.88075 11.0877C3.56369 11.1744 3.21812 11.2159 2.8595 11.2159C2.61013 11.2159 2.35837 11.2017 2.12206 11.1494C2.62675 12.692 4.05888 13.8261 5.76175 13.8629C4.4365 14.8996 2.75381 15.5242 0.932188 15.5242C0.61275 15.5242 0.306375 15.5099 0 15.4707C1.72544 16.5834 3.77031 17.2188 5.9755 17.2188C13.1432 17.2188 17.062 11.2812 17.062 6.13462C17.062 5.96244 17.0561 5.79619 17.0478 5.63113C17.8208 5.0825 18.4704 4.39731 19 3.60881Z" fill="currentColor"/>
	</symbol>

	<symbol viewBox="0 0 20 20" id="instagram">
		<path fill="transparent" d="M15.3125 0.781252H4.6875C2.53012 0.781252 0.78125 2.53012 0.78125 4.6875V15.3125C0.78125 17.4699 2.53012 19.2188 4.6875 19.2188H15.3125C17.4699 19.2188 19.2187 17.4699 19.2187 15.3125V4.6875C19.2187 2.53012 17.4699 0.781252 15.3125 0.781252Z" stroke="currentColor" stroke-width="1.1" stroke-miterlimit="10" stroke-linecap="round" stroke-linejoin="round"/>
		<path d="M15.5078 3.51563C14.9684 3.51563 14.5312 3.95281 14.5312 4.49219C14.5312 5.03156 14.9684 5.46875 15.5078 5.46875C16.0472 5.46875 16.4844 5.03156 16.4844 4.49219C16.4844 3.95281 16.0472 3.51563 15.5078 3.51563Z" fill="currentColor"/>
		<path fill="transparent" d="M10 5.70313C7.62691 5.70313 5.70312 7.62691 5.70312 10C5.70312 12.3731 7.62691 14.2969 10 14.2969C12.3731 14.2969 14.2969 12.3731 14.2969 10C14.2969 7.62691 12.3731 5.70313 10 5.70313Z" stroke="currentColor" stroke-width="1.1" stroke-miterlimit="10" stroke-linecap="round" stroke-linejoin="round"/>
	</symbol>

	<symbol viewBox="0 0 14 14" id="arrow-prev-2">
		<path d="M5.65053 7.00296L10.8879 1.76537C11.0321 1.6215 11.1114 1.42914 11.1114 1.22403C11.1114 1.01881 11.0321 0.82657 10.8879 0.682472L10.429 0.223773C10.285 0.0794478 10.0925 6.2995e-07 9.88741 6.12019e-07C9.6823 5.94089e-07 9.49006 0.0794477 9.34596 0.223773L3.11004 6.45958C2.96537 6.60413 2.88615 6.79728 2.88672 7.00262C2.88615 7.20886 2.96526 7.40179 3.11004 7.54646L9.34015 13.7762C9.48425 13.9206 9.67649 14 9.88171 14C10.0868 14 10.2791 13.9206 10.4233 13.7762L10.8821 13.3175C11.1806 13.019 11.1806 12.533 10.8821 12.2345L5.65053 7.00296Z" fill="currentColor"/>
	</symbol>

	<symbol viewBox="0 0 14 14" id="arrow-next-2">
		<path d="M8.34947 7.00296L3.11211 1.76537C2.9679 1.6215 2.88856 1.42914 2.88856 1.22403C2.88856 1.01881 2.9679 0.82657 3.11211 0.682472L3.57103 0.223773C3.71502 0.0794478 3.90749 6.2995e-07 4.11259 6.12019e-07C4.3177 5.94089e-07 4.50994 0.0794477 4.65404 0.223773L10.89 6.45958C11.0346 6.60413 11.1138 6.79728 11.1133 7.00262C11.1138 7.20886 11.0347 7.40179 10.89 7.54646L4.65985 13.7762C4.51575 13.9206 4.32351 14 4.11829 14C3.91318 14 3.72094 13.9206 3.57673 13.7762L3.11791 13.3175C2.81936 13.019 2.81936 12.533 3.11791 12.2345L8.34947 7.00296Z" fill="currentColor"/>
	</symbol>

	<symbol viewBox="0 0 9 9" id="check">
		<path d="M3.44626 7.86211C3.36035 7.94853 3.24314 7.99674 3.12138 7.99674C2.99963 7.99674 2.88242 7.94853 2.79651 7.86211L0.201944 5.26713C-0.0673148 4.99787 -0.0673148 4.56125 0.201944 4.2925L0.526822 3.96753C0.796165 3.69827 1.23228 3.69827 1.50154 3.96753L3.12138 5.58746L7.49844 1.21032C7.76779 0.941062 8.20432 0.941062 8.47316 1.21032L8.79804 1.53528C9.0673 1.80454 9.0673 2.24108 8.79804 2.50992L3.44626 7.86211Z" fill="currentColor"/>
	</symbol>

	<symbol viewBox="0 0 12 12" id="drop-down-arrow-2">
		<path d="M6.46824 9.33353L11.8083 3.99338C11.9319 3.86987 12 3.70499 12 3.52919C12 3.35339 11.9319 3.18851 11.8083 3.065L11.4151 2.67173C11.1589 2.41583 10.7425 2.41583 10.4867 2.67173L6.00249 7.15599L1.51326 2.66676C1.38965 2.54325 1.22487 2.47505 1.04916 2.47505C0.873261 2.47505 0.708483 2.54325 0.584776 2.66676L0.191707 3.06002C0.068098 3.18363 9.15499e-07 3.34841 9.07814e-07 3.52421C9.00129e-07 3.70002 0.068098 3.86489 0.191707 3.98841L5.53664 9.33353C5.66064 9.45734 5.8262 9.52534 6.0022 9.52495C6.17888 9.52534 6.34434 9.45734 6.46824 9.33353Z" fill="currentColor"/>
	</symbol>

	<symbol viewBox="0 0 11 18" id="arrow-prev-3">
		<path d="M10 1L2 9L10 17" stroke="currentColor" fill="transparent" stroke-width="1.5"/>
	</symbol>

	<symbol viewBox="0 0 11 18" id="arrow-next-3">
		<path d="M1 1L9 9L1 17" stroke="currentColor" fill="transparent" stroke-width="1.5"/>
	</symbol>

	<symbol viewBox="0 0 33 33" id="international-delivery">
		<path d="M27.3014 7.94104C27.1545 7.94104 27.0091 7.87917 26.907 7.75851C26.7234 7.54092 26.7502 7.21556 26.9678 7.032C27.8021 6.32765 28.4018 5.39953 28.7019 4.3492C28.7807 4.07489 29.0679 3.92072 29.3392 3.99445C29.613 4.07283 29.7718 4.35848 29.6939 4.63176C29.3371 5.88009 28.6245 6.9825 27.6335 7.81936C27.5365 7.90134 27.419 7.94104 27.3014 7.94104Z" fill="currentColor"/>
		<path d="M17.6493 14.3683C17.4765 14.3683 17.3079 14.2816 17.21 14.1239C17.0604 13.8815 17.1347 13.5639 17.377 13.4138C20.3568 11.5679 23.5057 9.47138 27.0027 7.0036C27.2353 6.84015 27.5565 6.89532 27.7215 7.12786C27.8855 7.36041 27.8298 7.68216 27.5972 7.84665C24.0838 10.3263 20.9183 12.4336 17.92 14.2909C17.8359 14.3435 17.7421 14.3683 17.6493 14.3683Z" fill="currentColor"/>
		<path d="M25.3522 15.6357C25.2053 15.6357 25.0594 15.5733 24.9573 15.4521C24.7737 15.2345 24.8015 14.9092 25.0197 14.7261L26.1829 13.7475C26.401 13.5629 26.7264 13.5918 26.9089 13.8099C27.0925 14.0275 27.0646 14.3528 26.8465 14.5359L25.6833 15.5145C25.5868 15.596 25.4688 15.6357 25.3522 15.6357Z" fill="currentColor"/>
		<path d="M25.3519 15.6357C25.1224 15.6357 24.9131 15.4815 24.8528 15.2489L23.4735 9.90346C23.4023 9.6276 23.5689 9.34659 23.8442 9.27491C24.1201 9.20479 24.4011 9.36979 24.4727 9.64565L25.852 14.9911C25.9232 15.267 25.7567 15.548 25.4813 15.6197C25.438 15.6305 25.3947 15.6357 25.3519 15.6357Z" fill="currentColor"/>
		<path d="M26.5141 14.6569C26.232 14.6569 26.0021 14.4306 25.9984 14.1485L25.918 8.04457C25.9144 7.75943 26.1423 7.52585 26.4264 7.52173H26.4336C26.7157 7.52173 26.9457 7.74809 26.9493 8.03013L27.0297 14.1341C27.0333 14.4192 26.8054 14.6528 26.5213 14.6569C26.5187 14.6569 26.5161 14.6569 26.5141 14.6569Z" fill="currentColor"/>
		<path d="M18.6175 16.7201C18.3715 16.7201 18.1539 16.5438 18.1101 16.2932L17.6445 13.631C17.5955 13.3505 17.7832 13.0834 18.0637 13.0345C18.3432 12.987 18.6118 13.1737 18.6603 13.4537L19.1259 16.1158C19.1749 16.3963 18.9872 16.6634 18.7067 16.7124C18.6773 16.7176 18.6469 16.7201 18.6175 16.7201Z" fill="currentColor"/>
		<path d="M19.4731 16.1312C19.4329 16.1312 19.3927 16.1265 19.3519 16.1172C19.0756 16.0502 18.9049 15.7718 18.9714 15.4949L19.7897 12.0949C19.8562 11.8185 20.1336 11.6494 20.4121 11.7143C20.6884 11.7814 20.8591 12.0598 20.7926 12.3367L19.9743 15.7367C19.9171 15.9729 19.7057 16.1312 19.4731 16.1312Z" fill="currentColor"/>
		<path d="M18.6177 16.7201C18.4537 16.7201 18.2923 16.6422 18.1923 16.4963C18.0309 16.2617 18.0907 15.941 18.3253 15.7791L19.1812 15.1902C19.4158 15.0288 19.7366 15.0892 19.8985 15.3233C20.0599 15.5579 20 15.8786 19.7654 16.0405L18.9095 16.6293C18.8203 16.6907 18.7187 16.7201 18.6177 16.7201Z" fill="currentColor"/>
		<path d="M9.90171 25.8419C9.82385 25.8419 9.74393 25.8244 9.66968 25.7867C9.41548 25.6584 9.3139 25.3479 9.44229 25.0937L10.3199 23.3576C10.4478 23.1034 10.7582 23.0008 11.0129 23.1302C11.2671 23.2586 11.3687 23.569 11.2403 23.8232L10.3627 25.5594C10.2719 25.7388 10.0899 25.8419 9.90171 25.8419Z" fill="currentColor"/>
		<path d="M10.7775 24.106C10.498 24.106 10.2686 23.8827 10.2619 23.6022C10.2552 23.3176 10.481 23.0815 10.7656 23.0748L11.4994 23.0577L11.8794 22.7731C11.9464 22.7226 12.0248 22.6896 12.1078 22.6762L12.8421 22.5596L13.9661 22.044C13.995 22.0311 14.0239 22.0208 14.0543 22.0126L14.9628 21.7826L15.76 21.0757L15.8868 20.7622C15.5847 20.4935 15.2799 20.2275 14.9736 19.963C14.771 19.7882 14.7359 19.4876 14.8927 19.2705L15.1108 18.9688L15.0974 18.4867L14.7359 17.7772L14.3002 17.094C14.1476 16.8532 14.2193 16.5351 14.4601 16.3825C14.7014 16.2298 15.0195 16.3015 15.1716 16.5423L15.6311 17.2673L16.0693 18.1217C16.1039 18.1897 16.123 18.2645 16.1256 18.3413L16.1477 19.1142C16.1508 19.2277 16.1163 19.3391 16.0503 19.4308L16.0059 19.4917C16.288 19.7381 16.5685 19.9851 16.8474 20.2352C17.0088 20.3806 17.0619 20.6111 16.9805 20.8127L16.6716 21.5748C16.6417 21.6485 16.5953 21.714 16.5355 21.7666L15.5542 22.637C15.4929 22.6916 15.4186 22.7308 15.3392 22.7515L14.3549 23.001L13.2092 23.5264C13.1664 23.546 13.121 23.5594 13.0746 23.5667L12.3971 23.6744L11.9871 23.9812C11.901 24.0457 11.7974 24.0818 11.6901 24.0844L10.7914 24.1055C10.7857 24.106 10.7816 24.106 10.7775 24.106Z" fill="currentColor"/>
		<path d="M15.0044 27.0315C12.3773 27.0315 9.76048 26.1611 7.68457 24.5178L7.51184 24.3801C7.28857 24.2033 7.25093 23.8789 7.4283 23.6562C7.60516 23.4329 7.93001 23.3948 8.15224 23.5726L8.32498 23.7098C11.0629 25.877 14.8358 26.5715 18.1719 25.5181C21.9132 24.3383 24.7744 21.076 25.4618 17.2062C25.5118 16.9262 25.7763 16.7396 26.0594 16.7886C26.3399 16.8386 26.5265 17.1057 26.477 17.3862C25.7237 21.6293 22.5856 25.2077 18.4823 26.5019C17.3525 26.8577 16.1769 27.0315 15.0044 27.0315Z" fill="currentColor"/>
		<path d="M6.35614 23.021C6.20816 23.021 6.06172 22.9581 5.95963 22.8359C2.82978 19.0821 2.36572 13.7202 4.80566 9.49409C6.92539 5.82181 10.8818 3.58554 15.1125 3.63401C15.3976 3.63814 15.625 3.87223 15.6209 4.15686C15.6168 4.442 15.3693 4.66939 15.0981 4.66526C15.0516 4.66475 15.0047 4.66423 14.9583 4.66423C11.2025 4.66423 7.57921 6.75097 5.69821 10.0097C3.50835 13.8027 3.94147 18.8058 6.7506 22.1754C6.93313 22.3945 6.90374 22.7194 6.68511 22.9014C6.58921 22.9818 6.47267 23.021 6.35614 23.021Z" fill="currentColor"/>
		<path d="M17.2956 13.1324C17.2368 13.1324 17.177 13.1221 17.1177 13.1004L14.6974 12.2125C14.4297 12.1151 14.2931 11.8181 14.3911 11.551C14.4885 11.2839 14.7845 11.1457 15.0526 11.2447L17.473 12.1326C17.7406 12.2301 17.8772 12.5271 17.7792 12.7942C17.7029 13.003 17.5054 13.1324 17.2956 13.1324Z" fill="currentColor"/>
		<path d="M17.3673 14.4519C17.0698 14.4519 16.7769 14.3209 16.5629 14.0718C16.2128 13.664 16.2076 13.0973 16.5511 12.6951C16.7351 12.4775 17.061 12.4518 17.2776 12.6374C17.4946 12.8215 17.5204 13.1473 17.3353 13.3639C17.3291 13.3711 17.3276 13.3747 17.3276 13.3747C17.3296 13.3856 17.3559 13.4165 17.3724 13.4206C17.6148 13.2706 17.936 13.3428 18.0856 13.5846C18.2356 13.8269 18.1634 14.1415 17.9216 14.291C17.7473 14.3993 17.556 14.4519 17.3673 14.4519Z" fill="currentColor"/>
		<path d="M16.9411 13.5454C16.8231 13.5454 16.704 13.5052 16.607 13.4227C16.3905 13.2381 16.3642 12.9128 16.5487 12.6957C19.0103 9.80353 21.7736 7.14188 24.4445 4.56788L24.691 4.33069C24.8957 4.13269 25.2216 4.13888 25.4201 4.34358C25.6181 4.5488 25.6119 4.87519 25.4072 5.07267L25.1602 5.31038C22.5068 7.86684 19.7626 10.5105 17.334 13.3639C17.232 13.4835 17.0871 13.5454 16.9411 13.5454Z" fill="currentColor"/>
		<path d="M17.1929 11.4149C17.0026 11.4149 16.8191 11.3092 16.7299 11.1266L16.2106 10.0712L15.8822 9.54315C15.7847 9.38434 15.7801 9.18583 15.8708 9.02237L16.2142 8.40362C16.2978 8.25306 16.4509 8.15406 16.6231 8.13962L17.3899 8.07723L17.4693 8.01948L17.4079 7.87408C17.2517 7.9277 17.0789 7.90295 16.9444 7.80756L16.1343 7.23728L15.8977 7.28162C15.7378 7.31204 15.5713 7.26461 15.4516 7.15323L15.0799 6.80879C15.019 6.75259 14.9726 6.68195 14.9443 6.60409L14.7592 6.08383L14.0687 5.50684L13.2705 5.39237C13.022 5.3568 12.8348 5.14642 12.8287 4.89531L12.8127 4.28172C12.8055 3.99709 13.0303 3.7599 13.3149 3.75269C13.5768 3.7532 13.8367 3.96976 13.8439 4.2549L13.8486 4.43383L14.3606 4.50756C14.4554 4.52097 14.5441 4.56119 14.6174 4.62255L15.5285 5.38361C15.5996 5.44239 15.6527 5.51973 15.6842 5.60636L15.8739 6.14003L15.9621 6.2215L16.158 6.18489C16.2957 6.15808 16.4365 6.18953 16.5509 6.26997L17.3187 6.81137L17.5172 6.73867C17.775 6.6438 18.0628 6.76961 18.1695 7.0233L18.5799 7.99834C18.6727 8.21903 18.6016 8.47478 18.4077 8.61554L17.8802 8.99865C17.8039 9.05383 17.7137 9.08734 17.6188 9.09559L16.9836 9.14767L16.9201 9.26162L17.114 9.57564L17.657 10.6739C17.7823 10.9292 17.6771 11.2385 17.4218 11.3643C17.3471 11.3973 17.2692 11.4149 17.1929 11.4149Z" fill="currentColor"/>
		<path d="M15.6087 11.5061C15.338 11.5061 15.1101 11.2947 15.0946 11.0204C15.0781 10.7363 15.2952 10.4924 15.5793 10.4759L18.9221 10.282C19.2 10.2666 19.4501 10.4826 19.4666 10.7667C19.4831 11.0508 19.266 11.2947 18.9819 11.3112L15.6391 11.5051C15.6288 11.5056 15.6185 11.5061 15.6087 11.5061Z" fill="currentColor"/>
		<path d="M14.8752 12.2445C14.7442 12.2445 14.6127 12.1945 14.5122 12.0955C14.3101 11.8949 14.308 11.5685 14.5086 11.3659L15.2397 10.6275C15.4408 10.4254 15.7662 10.4238 15.9694 10.6239C16.1715 10.8245 16.1735 11.1508 15.973 11.3535L15.2418 12.0919C15.1402 12.1934 15.0077 12.2445 14.8752 12.2445Z" fill="currentColor"/>
		<path d="M21.2028 25.1367C21.1683 25.1367 21.1327 25.1331 21.0977 25.1259C20.8187 25.0681 20.6393 24.7948 20.6975 24.5159L20.8419 23.8188C20.8491 23.7863 20.8589 23.7543 20.8718 23.7229L21.1301 23.1103L21.0425 22.6272L20.6944 22.2956L20.0685 22.1559C19.8988 22.1182 19.7591 21.9965 19.6982 21.8336L19.4038 21.0478C19.3801 20.9849 19.3693 20.9179 19.3713 20.8508L19.4012 19.9077C19.4059 19.7541 19.4786 19.6113 19.5998 19.5169L20.4629 18.845L21.1466 18.118C21.2281 18.0309 21.3374 17.9752 21.4555 17.9597L22.0825 17.8777L22.2666 17.6735C22.3816 17.5457 22.5533 17.4843 22.7239 17.5091L23.5809 17.6344C23.7108 17.6534 23.8284 17.721 23.9104 17.8241L24.3244 18.3459L24.7472 18.696C24.8009 18.7399 24.8447 18.794 24.8767 18.8559L25.2216 19.5205C25.251 19.5767 25.2696 19.6381 25.2763 19.7005L25.366 20.4961C25.398 20.7792 25.1943 21.0344 24.9112 21.0664C24.6235 21.0932 24.3724 20.8946 24.3409 20.6116L24.2626 19.9108L24.0099 19.4246L23.6263 19.107C23.5979 19.0843 23.5727 19.058 23.551 19.0302L23.2303 18.6259L22.8482 18.5702L22.7214 18.711C22.6394 18.8022 22.5275 18.861 22.4058 18.8765L21.7731 18.9595L21.1879 19.5814C21.1698 19.6009 21.1502 19.619 21.1291 19.635L20.4253 20.1831L20.4067 20.7822L20.5676 21.2118L21.0605 21.3221C21.1518 21.3422 21.2353 21.3871 21.3034 21.4515L21.8768 21.9971C21.9557 22.0723 22.0093 22.1713 22.0289 22.2786L22.1738 23.0783C22.1913 23.1768 22.1805 23.2784 22.1413 23.3707L21.8427 24.0786L21.7087 24.7263C21.6566 24.9696 21.4421 25.1367 21.2028 25.1367Z" fill="currentColor"/>
		<path d="M29.1977 5.00611C29.1508 5.00611 29.1028 4.99993 29.0564 4.98652C28.7826 4.90866 28.6233 4.62352 28.7016 4.34972C28.7455 4.19555 28.6661 4.07747 28.6295 4.03365C28.5928 3.98982 28.4954 3.89236 28.3356 3.90525C28.0571 3.93155 27.8014 3.72169 27.7756 3.4381C27.7498 3.1545 27.9591 2.90391 28.2427 2.87813C28.6867 2.83946 29.1317 3.02302 29.4235 3.37571C29.7159 3.72891 29.8169 4.19865 29.6932 4.63229C29.6287 4.85865 29.4215 5.00611 29.1977 5.00611Z" fill="currentColor"/>
		<path d="M25.0513 5.21711C24.9007 5.21711 24.7517 5.15163 24.6501 5.02581C24.4707 4.80409 24.5052 4.47925 24.7264 4.30084C25.736 3.48461 26.9524 2.9927 28.2456 2.87772C28.5255 2.85297 28.7797 3.06231 28.8045 3.34591C28.8298 3.6295 28.6204 3.87958 28.3363 3.90484C27.2489 4.00178 26.2243 4.41531 25.3751 5.10213C25.2792 5.17947 25.1652 5.21711 25.0513 5.21711Z" fill="currentColor"/>
		<path d="M24.2883 5.95333C24.2542 5.95333 24.2186 5.94972 24.1841 5.9425L18.2049 4.71377C17.926 4.65653 17.746 4.38377 17.8038 4.10481C17.8615 3.82586 18.1343 3.64591 18.4127 3.70366L24.3924 4.93291C24.6714 4.99014 24.8513 5.26291 24.7936 5.54186C24.7425 5.78575 24.528 5.95333 24.2883 5.95333Z" fill="currentColor"/>
		<path d="M22.1147 8.04423C22.0405 8.04423 21.9657 8.02877 21.8946 7.99473L16.9048 5.63266C16.6476 5.51097 16.5372 5.20314 16.6589 4.94584C16.7806 4.68855 17.0894 4.57769 17.3457 4.69989L22.3354 7.06197C22.5927 7.18366 22.7031 7.49148 22.5814 7.74878C22.4932 7.93544 22.3081 8.04423 22.1147 8.04423Z" fill="currentColor"/>
		<path d="M17.1252 5.68204C16.9752 5.68204 16.8262 5.61707 16.7246 5.49126C16.5451 5.27005 16.5792 4.94521 16.7999 4.76629L17.9801 3.80877C18.2024 3.62882 18.5267 3.66337 18.7051 3.88405C18.8845 4.10526 18.8505 4.4301 18.6298 4.60902L17.4495 5.56654C17.3536 5.64388 17.2387 5.68204 17.1252 5.68204Z" fill="currentColor"/>
		<path d="M6.20456 30.128C4.71441 30.128 3.73627 29.5494 3.43463 28.4811C2.95974 26.7981 4.04719 24.9057 5.1728 23.2764C7.85714 19.3916 11.3969 16.2339 14.5061 13.6574C14.7258 13.4743 15.0506 13.5058 15.2316 13.7254C15.4136 13.9446 15.3832 14.2699 15.1635 14.4509C12.109 16.9826 8.63419 20.081 6.021 23.8626C5.42236 24.7294 4.02038 26.7584 4.42772 28.2011C4.65408 29.0055 5.65078 29.1328 6.44536 29.0911C9.24263 28.9575 12.044 27.4606 14.5159 26.1391L14.6345 26.0757C14.8856 25.9416 15.1986 26.0365 15.3327 26.2871C15.4672 26.5382 15.3719 26.8512 15.1213 26.9852L15.0022 27.0487C12.4343 28.4207 9.52364 29.9764 6.49486 30.1208C6.39586 30.1254 6.29944 30.128 6.20456 30.128Z" fill="currentColor"/>
		<path d="M16.1084 16.1931C16.0248 16.1931 15.9403 16.173 15.8614 16.1297C15.1117 15.7198 14.5563 15.0113 14.3377 14.1853C14.2645 13.9099 14.429 13.6279 14.7043 13.5547C14.9786 13.4825 15.2622 13.6459 15.3349 13.9213C15.4814 14.4745 15.8537 14.9499 16.3559 15.2248C16.6054 15.3614 16.6977 15.6744 16.5606 15.924C16.4673 16.0967 16.2909 16.1931 16.1084 16.1931Z" fill="currentColor"/>
		<path d="M8.24333 29.0136C7.61942 29.0136 7.00377 28.9048 6.46081 28.6011C5.71677 28.1783 5.40687 27.2677 5.73687 26.4819C6.61395 24.4843 8.06028 22.7694 9.46587 21.1838C11.0277 19.4209 12.7844 17.8482 14.4489 16.388C14.7459 16.1271 15.0532 15.8765 15.3605 15.6254L15.7797 15.2809C15.9988 15.0979 16.3247 15.1294 16.5057 15.3485C16.6877 15.5681 16.6573 15.893 16.4382 16.0745L16.0123 16.4246C15.7147 16.6675 15.4172 16.9098 15.129 17.163C13.4883 18.6016 11.7599 20.15 10.2372 21.8675C8.83011 23.4557 7.49825 25.0345 6.68408 26.8887C6.5593 27.1857 6.67944 27.5394 6.96716 27.7029C7.82877 28.185 9.10339 27.9545 10.1176 27.7003C11.7331 27.2945 13.2382 26.6433 14.4979 26.0596C14.7557 25.9384 15.0625 26.0518 15.1821 26.3107C15.3017 26.569 15.1898 26.8753 14.931 26.9949C13.6285 27.5987 12.0667 28.2731 10.3682 28.7001C9.72111 28.863 8.97706 29.0136 8.24333 29.0136Z" fill="currentColor"/>
		<path d="M12.848 16.2421C12.6247 16.2421 12.4195 16.0967 12.3535 15.8719L12.0864 14.9638L11.3398 14.2224C11.2217 14.1048 11.1675 13.9378 11.1943 13.7738L11.2866 13.2107L10.9979 12.8338C10.903 12.71 10.8695 12.5497 10.9061 12.3981L11.2614 10.942L11.0319 10.4944C10.9731 10.3799 10.9592 10.2474 10.9933 10.1226L11.3805 8.71035C11.4403 8.49275 11.6347 8.3391 11.8605 8.33188L11.9085 8.32982L11.9069 7.53627L11.7028 6.40292L11.3052 5.87389L10.6602 5.96052L10.1327 6.30238C9.89806 6.45552 9.58456 6.3921 9.42627 6.1611L9.1798 5.80067C9.01892 5.56503 9.07977 5.24431 9.31489 5.08344C9.53145 4.937 9.8202 4.97516 9.99088 5.16594L10.1966 5.03239C10.2605 4.99063 10.3333 4.96381 10.408 4.95402L11.4671 4.81171C11.6538 4.78696 11.8363 4.86378 11.9487 5.01331L12.6015 5.88214C12.65 5.9466 12.6824 6.02136 12.6969 6.10077L12.9305 7.40014C12.9361 7.43005 12.9387 7.45996 12.9387 7.49038L12.9408 8.82894C12.9413 9.10738 12.7206 9.3358 12.4427 9.34508L12.2756 9.35127L12.042 10.2041L12.2679 10.6445C12.3241 10.7548 12.3395 10.8816 12.3102 11.0018L11.9678 12.4053L12.2416 12.7632C12.3282 12.8761 12.3638 13.0194 12.3411 13.1597L12.256 13.6805L12.9083 14.3286C12.9696 14.3894 13.015 14.4658 13.0393 14.5488L13.3435 15.5836C13.4239 15.8569 13.2677 16.1436 12.9944 16.2235C12.9444 16.2354 12.8959 16.2421 12.848 16.2421Z" fill="currentColor"/>
	</symbol>

	<symbol viewBox="0 0 21 22" id="message">
		<path fill-rule="evenodd" clip-rule="evenodd" d="M10.502 19.157L8.76176 15.6511C8.59289 15.3109 8.24586 15.0957 7.86604 15.0957H2.2647C1.91764 15.0957 1.61719 14.8035 1.61719 14.4362V2.27948C1.61719 1.91203 1.91766 1.61989 2.2647 1.61989H18.7393C19.0862 1.61989 19.3867 1.91199 19.3867 2.27948V14.4362C19.3867 14.8036 19.0862 15.0957 18.7393 15.0957H13.1379C12.7581 15.0957 12.4111 15.3109 12.2422 15.6511L10.502 19.157ZM12.1345 20.3665C11.861 20.9174 11.3281 21.5342 10.502 21.5342C9.67585 21.5342 9.14298 20.9175 8.86955 20.3665C8.86953 20.3665 8.86952 20.3665 8.8695 20.3664L7.246 17.0957H2.2647C0.799369 17.0957 -0.382812 15.8944 -0.382812 14.4362V2.27948C-0.382812 0.821247 0.799352 -0.38011 2.2647 -0.38011H18.7393C20.2046 -0.38011 21.3867 0.821281 21.3867 2.27948V14.4362C21.3867 15.8943 20.2046 17.0957 18.7393 17.0957H13.758L12.1345 20.3665Z" fill="currentColor"/>
	</symbol>

	<symbol viewBox="0 0 24 24" id="volume-active">
		<path d="M16.0004 9.00009C16.6281 9.83575 17 10.8745 17 12.0001C17 13.1257 16.6281 14.1644 16.0004 15.0001M18 5.29177C19.8412 6.93973 21 9.33459 21 12.0001C21 14.6656 19.8412 17.0604 18 18.7084M4.6 9.00009H5.5012C6.05213 9.00009 6.32759 9.00009 6.58285 8.93141C6.80903 8.87056 7.02275 8.77046 7.21429 8.63566C7.43047 8.48353 7.60681 8.27191 7.95951 7.84868L10.5854 4.69758C11.0211 4.17476 11.2389 3.91335 11.4292 3.88614C11.594 3.86258 11.7597 3.92258 11.8712 4.04617C12 4.18889 12 4.52917 12 5.20973V18.7904C12 19.471 12 19.8113 11.8712 19.954C11.7597 20.0776 11.594 20.1376 11.4292 20.114C11.239 20.0868 11.0211 19.8254 10.5854 19.3026L7.95951 16.1515C7.60681 15.7283 7.43047 15.5166 7.21429 15.3645C7.02275 15.2297 6.80903 15.1296 6.58285 15.0688C6.32759 15.0001 6.05213 15.0001 5.5012 15.0001H4.6C4.03995 15.0001 3.75992 15.0001 3.54601 14.8911C3.35785 14.7952 3.20487 14.6422 3.10899 14.4541C3 14.2402 3 13.9601 3 13.4001V10.6001C3 10.04 3 9.76001 3.10899 9.54609C3.20487 9.35793 3.35785 9.20495 3.54601 9.10908C3.75992 9.00009 4.03995 9.00009 4.6 9.00009Z" stroke="currentColor" stroke-width="2" stroke-linecap="round" stroke-linejoin="round"/>
	</symbol>

	<symbol viewBox="0 0 24 24" id="volume-none">
		<path d="M16 9.50009L21 14.5001M21 9.50009L16 14.5001M4.6 9.00009H5.5012C6.05213 9.00009 6.32759 9.00009 6.58285 8.93141C6.80903 8.87056 7.02275 8.77046 7.21429 8.63566C7.43047 8.48353 7.60681 8.27191 7.95951 7.84868L10.5854 4.69758C11.0211 4.17476 11.2389 3.91335 11.4292 3.88614C11.594 3.86258 11.7597 3.92258 11.8712 4.04617C12 4.18889 12 4.52917 12 5.20973V18.7904C12 19.471 12 19.8113 11.8712 19.954C11.7597 20.0776 11.594 20.1376 11.4292 20.114C11.239 20.0868 11.0211 19.8254 10.5854 19.3026L7.95951 16.1515C7.60681 15.7283 7.43047 15.5166 7.21429 15.3645C7.02275 15.2297 6.80903 15.1296 6.58285 15.0688C6.32759 15.0001 6.05213 15.0001 5.5012 15.0001H4.6C4.03995 15.0001 3.75992 15.0001 3.54601 14.8911C3.35785 14.7952 3.20487 14.6422 3.10899 14.4541C3 14.2402 3 13.9601 3 13.4001V10.6001C3 10.04 3 9.76001 3.10899 9.54609C3.20487 9.35793 3.35785 9.20495 3.54601 9.10908C3.75992 9.00009 4.03995 9.00009 4.6 9.00009Z" stroke="currentColor" stroke-width="2" stroke-linecap="round" stroke-linejoin="round"/>
	</symbol>

	<symbol viewBox="0 0 21 21" id="calendar">
		<path d="M18.293 1.64062H16.4062V0.65625C16.4062 0.293836 16.1125 0 15.75 0C15.3875 0 15.0938 0.293836 15.0938 0.65625V1.64062H5.90625V0.65625C5.90625 0.293836 5.61245 0 5.25 0C4.88755 0 4.59375 0.293836 4.59375 0.65625V1.64062H2.70703C1.21435 1.64062 0 2.85497 0 4.34766V18.293C0 19.7857 1.21435 21 2.70703 21H18.293C19.7857 21 21 19.7857 21 18.293V4.34766C21 2.85497 19.7857 1.64062 18.293 1.64062ZM2.70703 2.95312H4.59375V3.60938C4.59375 3.97179 4.88755 4.26562 5.25 4.26562C5.61245 4.26562 5.90625 3.97179 5.90625 3.60938V2.95312H15.0938V3.60938C15.0938 3.97179 15.3875 4.26562 15.75 4.26562C16.1125 4.26562 16.4062 3.97179 16.4062 3.60938V2.95312H18.293C19.0619 2.95312 19.6875 3.5787 19.6875 4.34766V5.90625H1.3125V4.34766C1.3125 3.5787 1.93807 2.95312 2.70703 2.95312ZM18.293 19.6875H2.70703C1.93807 19.6875 1.3125 19.0619 1.3125 18.293V7.21875H19.6875V18.293C19.6875 19.0619 19.0619 19.6875 18.293 19.6875Z" fill="currentColor"/>
	</symbol>

	<symbol viewBox="0 0 16 16" id="time">
		<path d="M10.8491 9.41291L8.61828 7.73979V4.3316C8.61828 3.98891 8.34128 3.71191 7.99859 3.71191C7.65591 3.71191 7.37891 3.98891 7.37891 4.3316V8.04966C7.37891 8.24485 7.47062 8.42891 7.62678 8.54541L10.1055 10.4044C10.217 10.4881 10.3472 10.5284 10.4767 10.5284C10.6657 10.5284 10.8516 10.4435 10.973 10.2799C11.1788 10.0066 11.123 9.61804 10.8491 9.41291Z" fill="currentColor"/>
		<path d="M8 0C3.58853 0 0 3.58853 0 8C0 12.4115 3.58853 16 8 16C12.4115 16 16 12.4115 16 8C16 3.58853 12.4115 0 8 0ZM8 14.7607C4.27266 14.7607 1.23934 11.7273 1.23934 8C1.23934 4.27266 4.27266 1.23934 8 1.23934C11.728 1.23934 14.7607 4.27266 14.7607 8C14.7607 11.7273 11.7273 14.7607 8 14.7607Z" fill="currentColor"/>
	</symbol>

	<symbol viewBox="0 0 16 16" id="delivery">
		<path d="M7.53125 4.354H8.46875V5.2915H7.53125V4.354Z" fill="currentColor"/>
		<path d="M12.2383 8.35498H13.1758V9.29248H12.2383V8.35498Z" fill="currentColor"/>
		<path d="M16 7.68816L14.9792 6.66732L13.0045 2.47119H0V12.1167H1.94197C2.15078 12.9278 2.88834 13.5288 3.76369 13.5288C4.63903 13.5288 5.37659 12.9278 5.58541 12.1167H10.4166C10.6254 12.9278 11.3629 13.5288 12.2383 13.5288C13.1136 13.5288 13.8512 12.9278 14.06 12.1167H16V7.68816ZM13.8512 6.47216H11.293V3.40869H12.4096L13.8512 6.47216ZM10.3555 3.40869V7.70704L9.162 6.51357L8.22062 7.45491L6.33781 5.5721L4.95906 6.95088L2.56862 4.56044L0.9375 6.1916V3.40869H10.3555ZM1.94197 11.1792H0.9375V7.51741L2.56866 5.88629L4.95909 8.27672L6.33784 6.89794L8.22066 8.78076L9.16203 7.83941L10.3555 9.03288V11.1793H5.58537C5.37656 10.3682 4.639 9.76713 3.76366 9.76713C2.88831 9.76713 2.15078 10.3682 1.94197 11.1792ZM3.76369 12.5913C3.2435 12.5913 2.82031 12.1681 2.82031 11.6479C2.82031 11.1278 3.2435 10.7046 3.76369 10.7046C4.28387 10.7046 4.70706 11.1278 4.70706 11.6479C4.70706 12.1681 4.28384 12.5913 3.76369 12.5913ZM12.2383 12.5913C11.7181 12.5913 11.2949 12.1681 11.2949 11.6479C11.2949 11.1278 11.7181 10.7046 12.2383 10.7046C12.7585 10.7046 13.1817 11.1278 13.1817 11.6479C13.1817 12.1681 12.7585 12.5913 12.2383 12.5913ZM15.0625 11.1792H14.06C13.8512 10.3681 13.1136 9.76707 12.2383 9.76707C11.8938 9.76707 11.5709 9.86057 11.293 10.0229V7.40963H14.3957L15.0625 8.0765V11.1792Z" fill="currentColor"/>
	</symbol>

	<symbol viewBox="0 0 16 16" id="email">
		<path d="M14.5938 2.375H1.40625C0.629281 2.375 0 3.00819 0 3.78125V12.2188C0 12.9964 0.633906 13.625 1.40625 13.625H14.5938C15.3642 13.625 16 12.9991 16 12.2188V3.78125C16 3.00956 15.3732 2.375 14.5938 2.375ZM14.3968 3.3125C14.1095 3.59828 9.16509 8.51666 8.99438 8.68647C8.72875 8.95209 8.37562 9.09834 8 9.09834C7.62437 9.09834 7.27125 8.95206 7.00475 8.68559C6.88994 8.57137 2.00009 3.70731 1.60319 3.3125H14.3968ZM0.9375 12.0279V3.97266L4.98869 8.0025L0.9375 12.0279ZM1.60378 12.6875L5.65338 8.66366L6.34272 9.34937C6.78541 9.79206 7.37397 10.0358 8 10.0358C8.62603 10.0358 9.21459 9.79206 9.65641 9.35025L10.3466 8.66366L14.3962 12.6875H1.60378ZM15.0625 12.0279L11.0113 8.0025L15.0625 3.97266V12.0279Z" fill="currentColor"/>
	</symbol>

	<symbol viewBox="0 0 15 15" id="tel">
		<path d="M3.05555 9.97099C4.53503 11.7395 6.31601 13.132 8.34875 14.1173C9.12268 14.484 10.1577 14.9192 11.3108 14.9938C11.3823 14.9969 11.4507 15 11.5222 15C12.2961 15 12.9178 14.7327 13.4244 14.1826C13.4275 14.1794 13.4337 14.1732 13.4368 14.167C13.6171 13.9494 13.8222 13.7536 14.0367 13.5454C14.1828 13.4055 14.332 13.2594 14.4749 13.1102C15.137 12.4202 15.137 11.5437 14.4687 10.8755L12.6007 9.00746C12.2837 8.67799 11.9045 8.50394 11.5066 8.50394C11.1088 8.50394 10.7265 8.67799 10.4001 9.00435L9.28741 10.1171C9.18484 10.058 9.07917 10.0052 8.97971 9.95545C8.85538 9.89329 8.74038 9.83423 8.63781 9.76896C7.62455 9.12557 6.70453 8.28637 5.82492 7.20783C5.38045 6.64525 5.08207 6.17281 4.87382 5.69105C5.16599 5.42685 5.43951 5.15023 5.7037 4.87982C5.79695 4.78346 5.8933 4.68711 5.98965 4.59076C6.32534 4.25508 6.50561 3.86656 6.50561 3.47182C6.50561 3.07708 6.32844 2.68856 5.98965 2.35288L5.06342 1.42665C4.95463 1.31786 4.85207 1.21218 4.74639 1.1034C4.54125 0.892043 4.32679 0.674472 4.11543 0.478657C3.79529 0.164733 3.4192 0 3.02136 0C2.62662 0 2.24742 0.164733 1.91485 0.481765L0.752397 1.64422C0.329687 2.06693 0.0903584 2.57978 0.0406278 3.17344C-0.0184273 3.91629 0.118332 4.70576 0.472663 5.65997C1.01659 7.13634 1.83715 8.50704 3.05555 9.97099ZM0.79902 3.23871C0.836318 2.82532 0.994834 2.48031 1.29322 2.18193L2.44945 1.02569C2.62973 0.851637 2.82865 0.7615 3.02136 0.7615C3.21095 0.7615 3.40366 0.851637 3.58083 1.03191C3.78907 1.22462 3.98489 1.42665 4.19624 1.64111C4.30192 1.7499 4.41071 1.85868 4.51949 1.97058L5.44572 2.89681C5.63843 3.08951 5.73789 3.28533 5.73789 3.47804C5.73789 3.67074 5.63843 3.86656 5.44572 4.05926C5.34937 4.15562 5.25302 4.25508 5.15667 4.35143C4.86761 4.6436 4.5972 4.92022 4.29881 5.18442C4.2926 5.19063 4.28949 5.19374 4.28327 5.19996C4.02529 5.45794 4.0657 5.70348 4.12786 5.88997C4.13097 5.8993 4.13408 5.90551 4.13719 5.91484C4.37652 6.48985 4.70909 7.03688 5.22815 7.6896C6.1606 8.83962 7.14278 9.73166 8.22442 10.4186C8.35807 10.5056 8.50105 10.574 8.6347 10.6424C8.75903 10.7045 8.87403 10.7636 8.9766 10.8288C8.98903 10.8351 8.99836 10.8413 9.01079 10.8475C9.11336 10.9003 9.21282 10.9252 9.31228 10.9252C9.56093 10.9252 9.72256 10.7667 9.7754 10.7138L10.9378 9.55139C11.1181 9.37111 11.3139 9.27476 11.5066 9.27476C11.7429 9.27476 11.9356 9.42085 12.0568 9.55139L13.931 11.4225C14.304 11.7955 14.3009 12.1995 13.9217 12.5943C13.7911 12.7341 13.6544 12.8678 13.5083 13.0077C13.2907 13.219 13.0638 13.4366 12.8587 13.6821C12.5013 14.0676 12.0754 14.2478 11.5253 14.2478C11.4725 14.2478 11.4165 14.2447 11.3637 14.2416C10.3442 14.1763 9.3962 13.7785 8.68443 13.4397C6.75115 12.5041 5.0541 11.177 3.6461 9.49233C2.48675 8.09677 1.7066 6.79755 1.19065 5.4051C0.870508 4.55035 0.749289 3.86345 0.79902 3.23871Z" fill="currentColor"/>
	</symbol>

	<symbol viewBox="0 0 22 22" id="history-orders">
		<path d="M1.76382 21.1406V17.7604M1.76382 17.7604H5.14405M1.76382 17.7604C2.93275 19.7811 5.11749 21.1406 7.61982 21.1406H14.3802C18.1139 21.1406 21.1406 18.1139 21.1406 14.3802V7.61978C21.1406 3.88609 18.1139 0.859375 14.3802 0.859375H7.61982C3.88614 0.859375 0.859375 3.88609 0.859375 7.61978V11M14.3802 7.61978L11 11V16.0703" stroke="currentColor" stroke-width="1.4" stroke-miterlimit="10" stroke-linecap="round" stroke-linejoin="round" fill="transparent"/>
	</symbol>

	<symbol viewBox="0 0 28 28" id="change-data">
		<path d="M10.9212 24.2088C10.6165 24.208 10.3234 24.0922 10.1005 23.8845L3.24357 17.5907C3.17664 17.5292 3.12321 17.4544 3.08667 17.3712C3.05012 17.2879 3.03125 17.198 3.03125 17.1071C3.03125 17.0162 3.05012 16.9262 3.08667 16.843C3.12321 16.7597 3.17664 16.685 3.24357 16.6234L10.1005 10.3291C10.2752 10.1688 10.4928 10.0628 10.7268 10.024C10.9607 9.98531 11.2009 10.0155 11.418 10.1109C11.6351 10.2064 11.8197 10.363 11.9493 10.5615C12.0789 10.7601 12.148 10.9921 12.148 11.2293V13.3435H16.5153C16.6893 13.3435 16.8562 13.4126 16.9793 13.5357C17.1024 13.6587 17.1715 13.8257 17.1715 13.9997V16.5628L23.349 10.8924L17.1715 5.22193V7.78454C17.1715 7.95859 17.1024 8.12551 16.9793 8.24858C16.8562 8.37165 16.6893 8.44079 16.5153 8.44079H6.75043C6.57639 8.44079 6.40947 8.37165 6.2864 8.24858C6.16332 8.12551 6.09418 7.95859 6.09418 7.78454C6.09418 7.61049 6.16332 7.44357 6.2864 7.3205C6.40947 7.19743 6.57639 7.12829 6.75043 7.12829H15.8589V5.01429C15.8589 4.77714 15.9279 4.54512 16.0575 4.34655C16.1872 4.14798 16.3719 3.99145 16.589 3.89608C16.8061 3.80071 17.0463 3.77062 17.2802 3.80948C17.5142 3.84834 17.7317 3.95447 17.9064 4.11492L24.7631 10.4087C24.8301 10.4702 24.8835 10.545 24.92 10.6283C24.9566 10.7115 24.9755 10.8014 24.9755 10.8923C24.9755 10.9833 24.9566 11.0732 24.92 11.1564C24.8835 11.2397 24.8301 11.3144 24.7631 11.376L17.9062 17.6703C17.7315 17.8307 17.5139 17.9366 17.2799 17.9754C17.046 18.0141 16.8058 17.9839 16.5887 17.8885C16.3716 17.793 16.187 17.6365 16.0574 17.4379C15.9278 17.2393 15.8587 17.0073 15.8587 16.7701V14.656H11.4916C11.3175 14.656 11.1506 14.5868 11.0275 14.4638C10.9045 14.3407 10.8353 14.1738 10.8353 13.9997V11.4367L4.65783 17.1071L10.8353 22.7775V20.2149C10.8353 20.0408 10.9045 19.8739 11.0275 19.7508C11.1506 19.6278 11.3175 19.5586 11.4916 19.5586H20.0955C20.2695 19.5586 20.4364 19.6278 20.5595 19.7508C20.6826 19.8739 20.7517 20.0408 20.7517 20.2149C20.7517 20.3889 20.6826 20.5558 20.5595 20.6789C20.4364 20.802 20.2695 20.8711 20.0955 20.8711H12.1478V22.9851C12.1497 23.2227 12.0815 23.4555 11.9516 23.6545C11.8217 23.8534 11.6359 24.0095 11.4176 24.1032C11.2613 24.1725 11.0922 24.2084 10.9212 24.2088Z" fill="currentColor"/>
	</symbol>

	<symbol viewBox="0 0 25 25" id="password-recovery">
		<path fill="transparent" d="M17.3828 18.3594H7.61719V10.5469H17.3828V18.3594Z" stroke="currentColor" stroke-width="1.4" stroke-miterlimit="10"/>
		<path fill="transparent" d="M9.57031 10.5469V7.61719C9.57031 5.99917 10.882 4.6875 12.5 4.6875C14.118 4.6875 15.4297 5.99917 15.4297 7.61719V10.5469" stroke="currentColor" stroke-width="1.4" stroke-miterlimit="10"/>
		<path fill="transparent" d="M8.58594 1.57915C9.75459 1.18833 11.0052 0.976564 12.3054 0.976564C18.7773 0.976564 24.0241 6.22305 24.0241 12.6953C24.0241 15.6967 22.8958 18.4346 21.0402 20.5078H25.0007" stroke="currentColor" stroke-width="1.4" stroke-miterlimit="10"/>
		<path fill="transparent" d="M16.6476 23.3402C15.4128 23.7825 14.0822 24.0234 12.6953 24.0234C6.22339 24.0234 0.976562 18.777 0.976562 12.3047C0.976562 9.30332 2.10493 6.56543 3.9605 4.49219H0" stroke="currentColor" stroke-width="1.4" stroke-miterlimit="10"/>	
	</symbol>

	<symbol viewBox="0 0 20 20" id="logout">
		<path d="M9.9668 18.3057H2.49168C2.0332 18.3057 1.66113 17.9336 1.66113 17.4751V2.52492C1.66113 2.06645 2.03324 1.69438 2.49168 1.69438H9.9668C10.4261 1.69438 10.7973 1.32313 10.7973 0.863828C10.7973 0.404531 10.4261 0.0332031 9.9668 0.0332031H2.49168C1.11793 0.0332031 0 1.15117 0 2.52492V17.4751C0 18.8488 1.11793 19.9668 2.49168 19.9668H9.9668C10.4261 19.9668 10.7973 19.5955 10.7973 19.1362C10.7973 18.6769 10.4261 18.3057 9.9668 18.3057Z" fill="currentColor"/>
		<path d="M19.7525 9.40904L14.7027 4.42564C14.3771 4.10337 13.8505 4.10755 13.5282 4.43396C13.206 4.76036 13.2093 5.28611 13.5366 5.60837L17.1454 9.16982H7.47508C7.01578 9.16982 6.64453 9.54107 6.64453 10.0004C6.64453 10.4597 7.01578 10.8309 7.47508 10.8309H17.1454L13.5366 14.3924C13.2093 14.7147 13.2068 15.2404 13.5282 15.5668C13.691 15.7313 13.9053 15.8143 14.1196 15.8143C14.3306 15.8143 14.5415 15.7346 14.7027 15.5751L19.7525 10.5917C19.9103 10.4356 20 10.2229 20 10.0003C20 9.77783 19.9111 9.56603 19.7525 9.40904Z" fill="currentColor"/>	
	</symbol>

	<symbol viewBox="0 0 28 28" id="trash">
		<path fill-rule="evenodd" clip-rule="evenodd" d="M6.35504 9.51297C6.81811 9.52504 7.18436 9.9365 7.17307 10.432L6.33462 10.4101L5.49615 10.3883C5.50744 9.89279 5.89198 9.5009 6.35504 9.51297ZM6.33462 10.4101C5.49615 10.3883 5.49615 10.3883 5.49615 10.3883L5.49503 10.4393L5.49201 10.5843C5.48946 10.7104 5.48594 10.8933 5.48202 11.1215C5.4742 11.5778 5.46482 12.2155 5.45856 12.9411C5.44608 14.3884 5.44588 16.2008 5.49651 17.6238C5.5519 19.1801 5.701 21.1946 5.82402 22.6947C5.96297 24.3888 7.29274 25.6666 8.86922 25.6666H17.1307C18.7072 25.6666 20.037 24.3888 20.176 22.6947C20.2989 21.1946 20.4481 19.1801 20.5035 17.6238C20.5541 16.2008 20.5539 14.3884 20.5414 12.9411C20.5351 12.2155 20.5258 11.5778 20.518 11.1215C20.514 10.8933 20.5105 10.7104 20.5079 10.5843L20.505 10.4393L20.5038 10.3892C20.4925 9.89373 20.108 9.5009 19.6449 9.51297C19.1818 9.52504 18.8156 9.9365 18.8269 10.432L19.3612 10.4181C18.8269 10.432 18.8269 10.432 18.8269 10.432L18.828 10.4807L18.8309 10.6231C18.8334 10.7475 18.837 10.9284 18.8408 11.1545C18.8486 11.6066 18.8579 12.2386 18.8641 12.9577C18.8765 14.3997 18.8763 16.177 18.8272 17.5555C18.7736 19.0646 18.6277 21.0417 18.5049 22.5378C18.4432 23.2913 17.8505 23.8716 17.1307 23.8716H8.86922C8.14945 23.8716 7.55682 23.2913 7.49502 22.5378C7.37231 21.0417 7.22642 19.0646 7.17272 17.5555C7.12366 16.177 7.12347 14.3997 7.1359 12.9577C7.14211 12.2386 7.15142 11.6066 7.15916 11.1545C7.16304 10.9284 7.16653 10.7475 7.16904 10.6231L7.172 10.4807L7.17307 10.432L6.33462 10.4101Z" fill="currentColor"/>
		<path fill-rule="evenodd" clip-rule="evenodd" d="M4.33331 6.82029C4.33331 6.32465 4.70882 5.92285 5.17202 5.92285H20.8279C21.2912 5.92285 21.6666 6.32465 21.6666 6.82029C21.6666 7.31593 21.2912 7.71773 20.8279 7.71773H5.17202C4.70882 7.71773 4.33331 7.31593 4.33331 6.82029Z" fill="currentColor"/>
		<path fill-rule="evenodd" clip-rule="evenodd" d="M8.94458 4.07509C9.47904 3.0028 10.5223 2.33301 11.6581 2.33301H14.3419C15.4777 2.33301 16.5209 3.0028 17.0554 4.07509L18.2131 6.39786C18.4312 6.8352 18.2765 7.37881 17.8678 7.61205C17.4591 7.84529 16.951 7.67984 16.733 7.24252L15.5753 4.91973C15.3324 4.43233 14.8581 4.12788 14.3419 4.12788H11.6581C11.1418 4.12788 10.6676 4.43233 10.4246 4.91973L9.2669 7.24252C9.04892 7.67984 8.54088 7.84529 8.13218 7.61205C7.72347 7.37881 7.56884 6.8352 7.78683 6.39786L8.94458 4.07509Z" fill="currentColor"/>
	</symbol>

	<symbol viewBox="0 0 24 24" id="favorite">
		<path d="M12 22.6648C11.6583 22.6648 11.3289 22.541 11.0722 22.3162C10.1026 21.4684 9.16789 20.6717 8.34318 19.9689L8.33897 19.9653C5.92107 17.9048 3.83312 16.1254 2.38037 14.3725C0.756407 12.4129 0 10.5549 0 8.52521C0 6.55316 0.676207 4.73383 1.90393 3.4021C3.1463 2.05463 4.851 1.3125 6.70458 1.3125C8.08995 1.3125 9.35869 1.75049 10.4754 2.6142C11.039 3.05017 11.5499 3.58374 12 4.20612C12.4502 3.58374 12.9609 3.05017 13.5247 2.6142C14.6415 1.75049 15.9102 1.3125 17.2956 1.3125C19.149 1.3125 20.8538 2.05463 22.0962 3.4021C23.3239 4.73383 24 6.55316 24 8.52521C24 10.5549 23.2437 12.4129 21.6198 14.3723C20.167 16.1254 18.0793 17.9046 15.6617 19.9649C14.8355 20.6688 13.8993 21.4667 12.9276 22.3165C12.6711 22.541 12.3415 22.6648 12 22.6648ZM6.70458 2.71838C5.24834 2.71838 3.91058 3.29956 2.93737 4.35498C1.9497 5.42633 1.4057 6.90729 1.4057 8.52521C1.4057 10.2323 2.04016 11.759 3.4627 13.4755C4.83764 15.1346 6.88274 16.8774 9.25065 18.8954L9.25505 18.899C10.0829 19.6046 11.0213 20.4044 11.998 21.2584C12.9805 20.4027 13.9204 19.6016 14.7498 18.895C17.1176 16.877 19.1625 15.1346 20.5374 13.4755C21.9598 11.759 22.5943 10.2323 22.5943 8.52521C22.5943 6.90729 22.0503 5.42633 21.0626 4.35498C20.0896 3.29956 18.7516 2.71838 17.2956 2.71838C16.2288 2.71838 15.2494 3.0575 14.3846 3.7262C13.6139 4.32239 13.077 5.07605 12.7622 5.60339C12.6004 5.87457 12.3155 6.03644 12 6.03644C11.6845 6.03644 11.3996 5.87457 11.2377 5.60339C10.9231 5.07605 10.3863 4.32239 9.6154 3.7262C8.75059 3.0575 7.77116 2.71838 6.70458 2.71838Z" fill="currentColor"/>
	</symbol>
	
	<symbol viewBox="0 0 24 24" id="favorite-active">
		<path fill-rule="evenodd" clip-rule="evenodd" d="M11.0722 22.3162C11.3289 22.541 11.6583 22.6648 12 22.6648C12.3415 22.6648 12.6711 22.541 12.9276 22.3165C13.8993 21.4667 14.8355 20.6688 15.6617 19.9649L15.6621 19.9646C18.0794 17.9044 20.1671 16.1253 21.6198 14.3723C23.2437 12.4129 24 10.5549 24 8.52521C24 6.55316 23.3239 4.73383 22.0962 3.4021C20.8538 2.05463 19.149 1.3125 17.2956 1.3125C15.9102 1.3125 14.6415 1.75049 13.5247 2.6142C12.9609 3.05017 12.4502 3.58374 12 4.20612C11.5499 3.58374 11.039 3.05017 10.4754 2.6142C9.35869 1.75049 8.08995 1.3125 6.70458 1.3125C4.851 1.3125 3.1463 2.05463 1.90393 3.4021C0.676207 4.73383 0 6.55316 0 8.52521C0 10.5549 0.756407 12.4129 2.38037 14.3725C3.83312 16.1254 5.92107 17.9048 8.33897 19.9653L8.34318 19.9689C9.16789 20.6717 10.1026 21.4684 11.0722 22.3162Z" fill="currentColor"/>	
	</symbol>

	<symbol viewBox="0 0 20 20" id="time-2">
		<path d="M9.99968 0.833008C8.18668 0.833008 6.4144 1.37062 4.90695 2.37787C3.3995 3.38512 2.22459 4.81675 1.53078 6.49174C0.83698 8.16673 0.655449 10.0098 1.00915 11.788C1.36284 13.5662 2.23589 15.1995 3.51787 16.4815C4.79985 17.7635 6.43319 18.6365 8.21135 18.9902C9.98951 19.3439 11.8326 19.1624 13.5076 18.4686C15.1826 17.7748 16.6142 16.5999 17.6215 15.0924C18.6287 13.585 19.1663 11.8127 19.1663 9.99967C19.1635 7.5694 18.1968 5.23949 16.4783 3.52103C14.7599 1.80257 12.4299 0.835875 9.99968 0.833008ZM13.0888 13.0888C12.9326 13.2451 12.7206 13.3328 12.4997 13.3328C12.2787 13.3328 12.0668 13.2451 11.9105 13.0888L9.41051 10.5888C9.25422 10.4326 9.16639 10.2207 9.16634 9.99967V4.99967C9.16634 4.77866 9.25414 4.5667 9.41042 4.41042C9.5667 4.25414 9.77866 4.16634 9.99968 4.16634C10.2207 4.16634 10.4327 4.25414 10.5889 4.41042C10.7452 4.5667 10.833 4.77866 10.833 4.99967V9.65468L13.0888 11.9105C13.2451 12.0668 13.3328 12.2787 13.3328 12.4997C13.3328 12.7206 13.2451 12.9326 13.0888 13.0888Z" fill="currentColor"/>	
	</symbol>

	<symbol viewBox="0 0 20 20" id="email-2">
		<path d="M6.33684 9.74707L7.84437 11.2597C8.4557 11.8732 9.53134 11.8864 10.1559 11.2597L11.6635 9.74707L17.0781 15.1793C16.8766 15.2725 16.6544 15.3281 16.4181 15.3281H1.58216C1.34591 15.3281 1.12376 15.2725 0.922282 15.1793L6.33684 9.74707Z" fill="currentColor"/>
		<path d="M1.58223 2.67188H16.4182C16.6544 2.67188 16.8766 2.72749 17.0781 2.82069L11.2922 8.6258C11.2918 8.62618 11.2914 8.62625 11.291 8.62664C11.2906 8.62703 11.2905 8.62755 11.2905 8.62755L9.40921 10.5151C9.20938 10.7149 8.79095 10.7149 8.59113 10.5151L6.7102 8.62787C6.7102 8.62787 6.70974 8.62703 6.70935 8.62664C6.70935 8.62664 6.70851 8.62618 6.70812 8.6258L0.922352 2.82066C1.12383 2.72742 1.34598 2.67188 1.58223 2.67188Z" fill="currentColor"/>
		<path d="M17.8317 3.55859C17.936 3.76946 18 4.00353 18 4.25427V13.7465C18 13.9972 17.9361 14.2313 17.8318 14.4421L12.4078 9.00053L17.8317 3.55859Z" fill="currentColor"/>
		<path d="M0.167856 3.55859L5.5918 9.00061L0.167856 14.4423C0.0635823 14.2314 -0.000402447 13.9973 -0.000402447 13.7465V4.25434C-0.000402447 4.00353 0.0635823 3.76946 0.167856 3.55859Z" fill="currentColor"/>
	</symbol>

	<symbol viewBox="0 0 20 20" id="file">
		<path d="M18.3049 2.09557C16.1128 -0.0491944 12.6086 -0.0487279 10.4171 2.09663L1.22597 11.2878C-0.43597 12.9889 -0.404209 15.7152 1.29692 17.3772C2.97005 19.0118 5.64217 19.0118 7.31531 17.3772L15.638 9.05443C16.72 7.97246 16.72 6.2182 15.638 5.13623C14.5561 4.05427 12.8018 4.05427 11.7198 5.13623L3.75896 13.0971C3.48129 13.3846 3.48926 13.8427 3.77677 14.1204C4.05724 14.3913 4.50185 14.3913 4.78232 14.1204L12.7432 6.15955C13.2711 5.65383 14.109 5.67185 14.6147 6.19975C15.1051 6.71171 15.1051 7.51915 14.6147 8.0311L6.29199 16.3538C5.16766 17.4621 3.35768 17.4492 2.24934 16.3248C1.15219 15.2119 1.15219 13.4241 2.24934 12.3111L11.4405 3.11995C13.0777 1.48218 15.7325 1.48172 17.3702 3.11885C19.008 4.75599 19.0085 7.41084 17.3713 9.04862L8.18016 18.2398C7.87658 18.4998 7.84122 18.9567 8.1012 19.2602C8.36119 19.5638 8.81806 19.5992 9.12164 19.3392C9.14996 19.3149 9.17634 19.2886 9.2006 19.2602L18.3918 10.0691C20.5696 7.84325 20.5307 4.27337 18.3049 2.09557Z" fill="currentColor"/>	
	</symbol>

</svg>