<svg viewBox="0 0 24 24"  xmlns="http://www.w3.org/2000/svg" style="display:none">

	<symbol viewBox="0 0 30 30" id="user">
		<path d="M25.6066 19.3934C23.9729 17.7596 22.0283 16.5502 19.9066 15.8181C22.179 14.253 23.6719 11.6337 23.6719 8.67188C23.6719 3.89021 19.7817 0 15 0C10.2183 0 6.32812 3.89021 6.32812 8.67188C6.32812 11.6337 7.82103 14.253 10.0935 15.8181C7.9718 16.5502 6.02719 17.7596 4.39342 19.3934C1.56029 22.2265 0 25.9934 0 30H2.34375C2.34375 23.0213 8.02131 17.3438 15 17.3438C21.9787 17.3438 27.6562 23.0213 27.6562 30H30C30 25.9934 28.4397 22.2265 25.6066 19.3934ZM15 15C11.5107 15 8.67188 12.1613 8.67188 8.67188C8.67188 5.1825 11.5107 2.34375 15 2.34375C18.4893 2.34375 21.3281 5.1825 21.3281 8.67188C21.3281 12.1613 18.4893 15 15 15Z" fill="currentColor"/>
	</symbol>

	<symbol viewBox="0 0 35 35" id="cart">
		<path d="M3.28125 4.37499H5.55625C5.88336 4.37302 6.20051 4.48746 6.45098 4.69786C6.70146 4.90825 6.86892 5.20089 6.92344 5.52343L7.65625 9.99687V10.0625L9.84375 23.1875C9.89488 23.4383 10.0323 23.6632 10.2322 23.823C10.432 23.9829 10.6816 24.0677 10.9375 24.0625H28.4375C28.6874 24.0698 28.9322 23.9913 29.1312 23.84C29.3302 23.6888 29.4714 23.4739 29.5312 23.2312L32.8125 10.1062C32.8531 9.94247 32.8552 9.77153 32.8187 9.6068C32.7822 9.44206 32.7081 9.288 32.6022 9.15667C32.4963 9.02533 32.3614 8.92028 32.2082 8.84973C32.0549 8.77918 31.8874 8.74504 31.7188 8.74999H9.67969L9.07812 5.17343C8.94271 4.33792 8.5136 3.57816 7.86799 3.03079C7.22239 2.48343 6.40266 2.1844 5.55625 2.18749H3.28125C2.99117 2.18749 2.71297 2.30273 2.50785 2.50785C2.30273 2.71296 2.1875 2.99116 2.1875 3.28124C2.1875 3.57132 2.30273 3.84952 2.50785 4.05464C2.71297 4.25976 2.99117 4.37499 3.28125 4.37499ZM30.3187 10.9375L27.5844 21.875H11.8672L10.0406 10.9375H30.3187Z" fill="currentColor"/>
		<path d="M26.25 26.25C25.601 26.25 24.9666 26.4424 24.427 26.803C23.8874 27.1635 23.4669 27.676 23.2185 28.2756C22.9702 28.8751 22.9052 29.5349 23.0318 30.1714C23.1584 30.8079 23.4709 31.3926 23.9298 31.8514C24.3887 32.3103 24.9734 32.6228 25.6099 32.7495C26.2464 32.8761 26.9061 32.8111 27.5057 32.5627C28.1053 32.3144 28.6177 31.8938 28.9783 31.3542C29.3388 30.8146 29.5313 30.1802 29.5313 29.5312C29.5313 28.661 29.1855 27.8264 28.5702 27.2111C27.9548 26.5957 27.1202 26.25 26.25 26.25ZM26.25 30.625C26.0337 30.625 25.8222 30.5609 25.6423 30.4407C25.4625 30.3205 25.3223 30.1497 25.2395 29.9498C25.1567 29.75 25.1351 29.53 25.1773 29.3179C25.2195 29.1057 25.3236 28.9108 25.4766 28.7579C25.6296 28.6049 25.8245 28.5007 26.0366 28.4585C26.2488 28.4163 26.4687 28.438 26.6686 28.5208C26.8684 28.6035 27.0392 28.7437 27.1594 28.9236C27.2796 29.1035 27.3438 29.3149 27.3438 29.5312C27.3438 29.8213 27.2285 30.0995 27.0234 30.3046C26.8183 30.5098 26.5401 30.625 26.25 30.625Z" fill="currentColor"/>
		<path d="M9.84375 29.5312C9.84375 30.1802 10.0362 30.8146 10.3967 31.3542C10.7573 31.8938 11.2697 32.3144 11.8693 32.5627C12.4689 32.8111 13.1286 32.8761 13.7651 32.7495C14.4016 32.6228 14.9863 32.3103 15.4452 31.8514C15.9041 31.3926 16.2166 30.8079 16.3432 30.1714C16.4698 29.5349 16.4048 28.8751 16.1565 28.2756C15.9081 27.676 15.4876 27.1635 14.948 26.803C14.4084 26.4424 13.774 26.25 13.125 26.25C12.2548 26.25 11.4202 26.5957 10.8048 27.2111C10.1895 27.8264 9.84375 28.661 9.84375 29.5312ZM14.2188 29.5312C14.2188 29.7476 14.1546 29.959 14.0344 30.1389C13.9142 30.3188 13.7434 30.459 13.5436 30.5417C13.3437 30.6245 13.1238 30.6462 12.9116 30.604C12.6995 30.5618 12.5046 30.4576 12.3516 30.3046C12.1986 30.1517 12.0945 29.9568 12.0523 29.7446C12.0101 29.5325 12.0317 29.3125 12.1145 29.1127C12.1973 28.9128 12.3375 28.742 12.5173 28.6218C12.6972 28.5016 12.9087 28.4375 13.125 28.4375C13.4151 28.4375 13.6933 28.5527 13.8984 28.7579C14.1035 28.963 14.2188 29.2412 14.2188 29.5312Z" fill="currentColor"/>
	</symbol>

	<symbol viewBox="0 0 20 20" id="search">
		<path d="M19.361 18.2168L14.601 13.2662C15.8249 11.8113 16.4954 9.98069 16.4954 8.07499C16.4954 3.62251 12.8729 0 8.42045 0C3.96797 0 0.345459 3.62251 0.345459 8.07499C0.345459 12.5275 3.96797 16.15 8.42045 16.15C10.092 16.15 11.6849 15.6458 13.0467 14.6888L17.8429 19.677C18.0434 19.8852 18.313 20 18.602 20C18.8755 20 19.1349 19.8957 19.3319 19.7061C19.7504 19.3034 19.7637 18.6357 19.361 18.2168ZM8.42045 2.10652C11.7115 2.10652 14.3889 4.78391 14.3889 8.07499C14.3889 11.3661 11.7115 14.0435 8.42045 14.0435C5.12937 14.0435 2.45198 11.3661 2.45198 8.07499C2.45198 4.78391 5.12937 2.10652 8.42045 2.10652Z" fill="currentColor"/>
	</symbol>

	<symbol viewBox="0 0 8 8" id="drop-down-arrow">
		<path d="M3.99831 4.7706L6.99122 1.77782C7.07343 1.69541 7.18335 1.65008 7.30055 1.65008C7.41782 1.65008 7.52767 1.69541 7.61002 1.77782L7.87213 2.04006C7.9546 2.12234 8 2.23232 8 2.34952C8 2.46673 7.9546 2.57658 7.87213 2.65892L4.30881 6.2223C4.22621 6.30497 4.11584 6.35024 3.9985 6.34991C3.88065 6.35024 3.77041 6.30503 3.68774 6.2223L0.127871 2.66224C0.0453988 2.5799 5.23104e-07 2.47004 5.24503e-07 2.35277C5.259e-07 2.23557 0.0453988 2.12572 0.127871 2.04331L0.389984 1.78113C0.560586 1.61053 0.838309 1.61053 1.00885 1.78113L3.99831 4.7706Z" fill="currentColor"/>
	</symbol>

	<symbol viewBox="0 0 14 14" id="plus">
		<path d="M7.87346 6.12654V0H6.12654V6.12654H0V7.87346H6.12654V14H7.87346V7.87346H14V6.12654H7.87346Z" fill="currentColor"/>
	</symbol>

	<symbol viewBox="0 0 26 9" id="arrow-prev">
		<path fill-rule="evenodd" clip-rule="evenodd" d="M2.46953 5.1L4.99144 7.57147L4.15152 8.42853L0.142822 4.5L4.15152 0.571472L4.99144 1.42853L2.46953 3.9H26.0001V5.1H2.46953Z" fill="currentColor"/>
	</symbol>

	<symbol viewBox="0 0 26 9" id="arrow-next">
		<path fill-rule="evenodd" clip-rule="evenodd" d="M23.5307 5.1L21.0088 7.57147L21.8487 8.42853L25.8574 4.5L21.8487 0.571472L21.0088 1.42853L23.5307 3.9H0.000190735V5.1H23.5307Z" fill="currentColor"/>
	</symbol>

	<symbol viewBox="0 0 18 18" id="arrow-up-right">
		<path fill-rule="evenodd" clip-rule="evenodd" d="M10.649 0.188965H17.9446V7.48456H15.9446V3.60318L2.06265 17.4852L0.648438 16.071L14.5304 2.18896H10.649V0.188965Z" fill="currentColor"/>
	</symbol>

	<symbol viewBox="0 0 47.971 47.971" id="close">
		<path fill="currentColor" d="M28.228,23.986L47.092,5.122c1.172-1.171,1.172-3.071,0-4.242c-1.172-1.172-3.07-1.172-4.242,0L23.986,19.744L5.121,0.88c-1.172-1.172-3.07-1.172-4.242,0c-1.172,1.171-1.172,3.071,0,4.242l18.865,18.864L0.879,42.85c-1.172,1.171-1.172,3.071,0,4.242C1.465,47.677,2.233,47.97,3,47.97s1.535-0.293,2.121-0.879l18.865-18.864L42.85,47.091c0.586,0.586,1.354,0.879,2.121,0.879s1.535-0.293,2.121-0.879c1.172-1.171,1.172-3.071,0-4.242L28.228,23.986z"/>
	</symbol>

</svg>