<svg width="23" height="23" fill="none" xmlns="http://www.w3.org/2000/svg"><g clip-path="url(#clip0_204_3786)" fill="#202121"><path d="M15.765 0h.162c.13 1.606-.483 2.806-1.228 3.675-.73.863-1.732 1.7-3.35 1.573-.109-1.583.505-2.694 1.25-3.561C13.288.879 14.552.16 15.764 0zm4.903 16.716v.045c-.455 1.378-1.104 2.559-1.896 3.655-.723.995-1.61 2.334-3.191 2.334-1.367 0-2.275-.88-3.676-.903-1.482-.024-2.297.735-3.652.926H7.79c-.995-.144-1.798-.932-2.383-1.642-1.725-2.098-3.058-4.808-3.306-8.276v-1.02c.105-2.481 1.31-4.5 2.914-5.477.846-.52 2.009-.963 3.304-.765.555.086 1.122.276 1.619.464.47.18 1.06.502 1.618.485.378-.011.754-.208 1.135-.347 1.116-.403 2.21-.865 3.652-.648 1.733.262 2.963 1.032 3.723 2.22-1.466.933-2.625 2.339-2.427 4.74.176 2.18 1.444 3.457 3.028 4.209z"/></g><defs><clipPath id="clip0_204_3786"><path fill="#fff" d="M0 0h22.773v22.773H0z"/></clipPath></defs></svg>