<svg width="20" height="22" fill="none" xmlns="http://www.w3.org/2000/svg"><g clip-path="url(#clip0_204_3799)"><path d="M19.638 8.9h-9.513v3.932l5.479.002a4.735 4.735 0 01-2.034 3.168h.002l-.099 2.35 3.36.2-.002.001c1.905-1.777 2.996-4.404 2.996-7.507 0-.746-.067-1.46-.19-2.147z" fill="#0085F7"/><path d="M13.571 16l-.001.002c-.908.617-2.076.977-3.443.977-2.642 0-4.883-1.794-5.685-4.214v.001l-2.805-.448-.559 3.08c1.667 3.334 5.092 5.622 9.049 5.622 2.734 0 5.032-.907 6.704-2.468h.002L13.57 16z" fill="#00A94B"/><path d="M4.124 10.813c0-.679.112-1.335.317-1.953l-.876-2.63H1.077A10.227 10.227 0 000 10.813c0 1.65.389 3.207 1.077 4.586l3.364-2.632v-.001a6.2 6.2 0 01-.317-1.953z" fill="#FB0"/><path d="M10.127.605c-3.956 0-7.382 2.289-9.049 5.624L4.442 8.86c.803-2.42 3.044-4.214 5.685-4.214 1.493 0 2.83.518 3.886 1.531l2.89-2.911c-1.756-1.649-4.044-2.66-6.775-2.66z" fill="#FF4031"/></g><defs><clipPath id="clip0_204_3799"><path fill="#fff" d="M0 0h20v22H0z"/></clipPath></defs></svg>