<svg width="33" height="33" viewBox="0 0 33 33" fill="none" xmlns="http://www.w3.org/2000/svg">
<path d="M27.3014 7.94104C27.1545 7.94104 27.0091 7.87917 26.907 7.75851C26.7234 7.54092 26.7502 7.21556 26.9678 7.032C27.8021 6.32765 28.4018 5.39953 28.7019 4.3492C28.7807 4.07489 29.0679 3.92072 29.3392 3.99445C29.613 4.07283 29.7718 4.35848 29.6939 4.63176C29.3371 5.88009 28.6245 6.9825 27.6335 7.81936C27.5365 7.90134 27.419 7.94104 27.3014 7.94104Z" fill="#2B2B2B"/>
<path d="M17.6493 14.3683C17.4765 14.3683 17.3079 14.2816 17.21 14.1239C17.0604 13.8815 17.1347 13.5639 17.377 13.4138C20.3568 11.5679 23.5057 9.47138 27.0027 7.0036C27.2353 6.84015 27.5565 6.89532 27.7215 7.12786C27.8855 7.36041 27.8298 7.68216 27.5972 7.84665C24.0838 10.3263 20.9183 12.4336 17.92 14.2909C17.8359 14.3435 17.7421 14.3683 17.6493 14.3683Z" fill="#2B2B2B"/>
<path d="M25.3522 15.6357C25.2053 15.6357 25.0594 15.5733 24.9573 15.4521C24.7737 15.2345 24.8015 14.9092 25.0197 14.7261L26.1829 13.7475C26.401 13.5629 26.7264 13.5918 26.9089 13.8099C27.0925 14.0275 27.0646 14.3528 26.8465 14.5359L25.6833 15.5145C25.5868 15.596 25.4688 15.6357 25.3522 15.6357Z" fill="#2B2B2B"/>
<path d="M25.3519 15.6357C25.1224 15.6357 24.9131 15.4815 24.8528 15.2489L23.4735 9.90346C23.4023 9.6276 23.5689 9.34659 23.8442 9.27491C24.1201 9.20479 24.4011 9.36979 24.4727 9.64565L25.852 14.9911C25.9232 15.267 25.7567 15.548 25.4813 15.6197C25.438 15.6305 25.3947 15.6357 25.3519 15.6357Z" fill="#2B2B2B"/>
<path d="M26.5141 14.6569C26.232 14.6569 26.0021 14.4306 25.9984 14.1485L25.918 8.04457C25.9144 7.75943 26.1423 7.52585 26.4264 7.52173H26.4336C26.7157 7.52173 26.9457 7.74809 26.9493 8.03013L27.0297 14.1341C27.0333 14.4192 26.8054 14.6528 26.5213 14.6569C26.5187 14.6569 26.5161 14.6569 26.5141 14.6569Z" fill="#2B2B2B"/>
<path d="M18.6175 16.7201C18.3715 16.7201 18.1539 16.5438 18.1101 16.2932L17.6445 13.631C17.5955 13.3505 17.7832 13.0834 18.0637 13.0345C18.3432 12.987 18.6118 13.1737 18.6603 13.4537L19.1259 16.1158C19.1749 16.3963 18.9872 16.6634 18.7067 16.7124C18.6773 16.7176 18.6469 16.7201 18.6175 16.7201Z" fill="#2B2B2B"/>
<path d="M19.4731 16.1312C19.4329 16.1312 19.3927 16.1265 19.3519 16.1172C19.0756 16.0502 18.9049 15.7718 18.9714 15.4949L19.7897 12.0949C19.8562 11.8185 20.1336 11.6494 20.4121 11.7143C20.6884 11.7814 20.8591 12.0598 20.7926 12.3367L19.9743 15.7367C19.9171 15.9729 19.7057 16.1312 19.4731 16.1312Z" fill="#2B2B2B"/>
<path d="M18.6177 16.7201C18.4537 16.7201 18.2923 16.6422 18.1923 16.4963C18.0309 16.2617 18.0907 15.941 18.3253 15.7791L19.1812 15.1902C19.4158 15.0288 19.7366 15.0892 19.8985 15.3233C20.0599 15.5579 20 15.8786 19.7654 16.0405L18.9095 16.6293C18.8203 16.6907 18.7187 16.7201 18.6177 16.7201Z" fill="#2B2B2B"/>
<path d="M9.90171 25.8419C9.82385 25.8419 9.74393 25.8244 9.66968 25.7867C9.41548 25.6584 9.3139 25.3479 9.44229 25.0937L10.3199 23.3576C10.4478 23.1034 10.7582 23.0008 11.0129 23.1302C11.2671 23.2586 11.3687 23.569 11.2403 23.8232L10.3627 25.5594C10.2719 25.7388 10.0899 25.8419 9.90171 25.8419Z" fill="#2B2B2B"/>
<path d="M10.7775 24.106C10.498 24.106 10.2686 23.8827 10.2619 23.6022C10.2552 23.3176 10.481 23.0815 10.7656 23.0748L11.4994 23.0577L11.8794 22.7731C11.9464 22.7226 12.0248 22.6896 12.1078 22.6762L12.8421 22.5596L13.9661 22.044C13.995 22.0311 14.0239 22.0208 14.0543 22.0126L14.9628 21.7826L15.76 21.0757L15.8868 20.7622C15.5847 20.4935 15.2799 20.2275 14.9736 19.963C14.771 19.7882 14.7359 19.4876 14.8927 19.2705L15.1108 18.9688L15.0974 18.4867L14.7359 17.7772L14.3002 17.094C14.1476 16.8532 14.2193 16.5351 14.4601 16.3825C14.7014 16.2298 15.0195 16.3015 15.1716 16.5423L15.6311 17.2673L16.0693 18.1217C16.1039 18.1897 16.123 18.2645 16.1256 18.3413L16.1477 19.1142C16.1508 19.2277 16.1163 19.3391 16.0503 19.4308L16.0059 19.4917C16.288 19.7381 16.5685 19.9851 16.8474 20.2352C17.0088 20.3806 17.0619 20.6111 16.9805 20.8127L16.6716 21.5748C16.6417 21.6485 16.5953 21.714 16.5355 21.7666L15.5542 22.637C15.4929 22.6916 15.4186 22.7308 15.3392 22.7515L14.3549 23.001L13.2092 23.5264C13.1664 23.546 13.121 23.5594 13.0746 23.5667L12.3971 23.6744L11.9871 23.9812C11.901 24.0457 11.7974 24.0818 11.6901 24.0844L10.7914 24.1055C10.7857 24.106 10.7816 24.106 10.7775 24.106Z" fill="#2B2B2B"/>
<path d="M15.0044 27.0315C12.3773 27.0315 9.76048 26.1611 7.68457 24.5178L7.51184 24.3801C7.28857 24.2033 7.25093 23.8789 7.4283 23.6562C7.60516 23.4329 7.93001 23.3948 8.15224 23.5726L8.32498 23.7098C11.0629 25.877 14.8358 26.5715 18.1719 25.5181C21.9132 24.3383 24.7744 21.076 25.4618 17.2062C25.5118 16.9262 25.7763 16.7396 26.0594 16.7886C26.3399 16.8386 26.5265 17.1057 26.477 17.3862C25.7237 21.6293 22.5856 25.2077 18.4823 26.5019C17.3525 26.8577 16.1769 27.0315 15.0044 27.0315Z" fill="#2B2B2B"/>
<path d="M6.35614 23.021C6.20816 23.021 6.06172 22.9581 5.95963 22.8359C2.82978 19.0821 2.36572 13.7202 4.80566 9.49409C6.92539 5.82181 10.8818 3.58554 15.1125 3.63401C15.3976 3.63814 15.625 3.87223 15.6209 4.15686C15.6168 4.442 15.3693 4.66939 15.0981 4.66526C15.0516 4.66475 15.0047 4.66423 14.9583 4.66423C11.2025 4.66423 7.57921 6.75097 5.69821 10.0097C3.50835 13.8027 3.94147 18.8058 6.7506 22.1754C6.93313 22.3945 6.90374 22.7194 6.68511 22.9014C6.58921 22.9818 6.47267 23.021 6.35614 23.021Z" fill="#2B2B2B"/>
<path d="M17.2956 13.1324C17.2368 13.1324 17.177 13.1221 17.1177 13.1004L14.6974 12.2125C14.4297 12.1151 14.2931 11.8181 14.3911 11.551C14.4885 11.2839 14.7845 11.1457 15.0526 11.2447L17.473 12.1326C17.7406 12.2301 17.8772 12.5271 17.7792 12.7942C17.7029 13.003 17.5054 13.1324 17.2956 13.1324Z" fill="#2B2B2B"/>
<path d="M17.3673 14.4519C17.0698 14.4519 16.7769 14.3209 16.5629 14.0718C16.2128 13.664 16.2076 13.0973 16.5511 12.6951C16.7351 12.4775 17.061 12.4518 17.2776 12.6374C17.4946 12.8215 17.5204 13.1473 17.3353 13.3639C17.3291 13.3711 17.3276 13.3747 17.3276 13.3747C17.3296 13.3856 17.3559 13.4165 17.3724 13.4206C17.6148 13.2706 17.936 13.3428 18.0856 13.5846C18.2356 13.8269 18.1634 14.1415 17.9216 14.291C17.7473 14.3993 17.556 14.4519 17.3673 14.4519Z" fill="#2B2B2B"/>
<path d="M16.9411 13.5454C16.8231 13.5454 16.704 13.5052 16.607 13.4227C16.3905 13.2381 16.3642 12.9128 16.5487 12.6957C19.0103 9.80353 21.7736 7.14188 24.4445 4.56788L24.691 4.33069C24.8957 4.13269 25.2216 4.13888 25.4201 4.34358C25.6181 4.5488 25.6119 4.87519 25.4072 5.07267L25.1602 5.31038C22.5068 7.86684 19.7626 10.5105 17.334 13.3639C17.232 13.4835 17.0871 13.5454 16.9411 13.5454Z" fill="#2B2B2B"/>
<path d="M17.1929 11.4149C17.0026 11.4149 16.8191 11.3092 16.7299 11.1266L16.2106 10.0712L15.8822 9.54315C15.7847 9.38434 15.7801 9.18583 15.8708 9.02237L16.2142 8.40362C16.2978 8.25306 16.4509 8.15406 16.6231 8.13962L17.3899 8.07723L17.4693 8.01948L17.4079 7.87408C17.2517 7.9277 17.0789 7.90295 16.9444 7.80756L16.1343 7.23728L15.8977 7.28162C15.7378 7.31204 15.5713 7.26461 15.4516 7.15323L15.0799 6.80879C15.019 6.75259 14.9726 6.68195 14.9443 6.60409L14.7592 6.08383L14.0687 5.50684L13.2705 5.39237C13.022 5.3568 12.8348 5.14642 12.8287 4.89531L12.8127 4.28172C12.8055 3.99709 13.0303 3.7599 13.3149 3.75269C13.5768 3.7532 13.8367 3.96976 13.8439 4.2549L13.8486 4.43383L14.3606 4.50756C14.4554 4.52097 14.5441 4.56119 14.6174 4.62255L15.5285 5.38361C15.5996 5.44239 15.6527 5.51973 15.6842 5.60636L15.8739 6.14003L15.9621 6.2215L16.158 6.18489C16.2957 6.15808 16.4365 6.18953 16.5509 6.26997L17.3187 6.81137L17.5172 6.73867C17.775 6.6438 18.0628 6.76961 18.1695 7.0233L18.5799 7.99834C18.6727 8.21903 18.6016 8.47478 18.4077 8.61554L17.8802 8.99865C17.8039 9.05383 17.7137 9.08734 17.6188 9.09559L16.9836 9.14767L16.9201 9.26162L17.114 9.57564L17.657 10.6739C17.7823 10.9292 17.6771 11.2385 17.4218 11.3643C17.3471 11.3973 17.2692 11.4149 17.1929 11.4149Z" fill="#2B2B2B"/>
<path d="M15.6087 11.5061C15.338 11.5061 15.1101 11.2947 15.0946 11.0204C15.0781 10.7363 15.2952 10.4924 15.5793 10.4759L18.9221 10.282C19.2 10.2666 19.4501 10.4826 19.4666 10.7667C19.4831 11.0508 19.266 11.2947 18.9819 11.3112L15.6391 11.5051C15.6288 11.5056 15.6185 11.5061 15.6087 11.5061Z" fill="#2B2B2B"/>
<path d="M14.8752 12.2445C14.7442 12.2445 14.6127 12.1945 14.5122 12.0955C14.3101 11.8949 14.308 11.5685 14.5086 11.3659L15.2397 10.6275C15.4408 10.4254 15.7662 10.4238 15.9694 10.6239C16.1715 10.8245 16.1735 11.1508 15.973 11.3535L15.2418 12.0919C15.1402 12.1934 15.0077 12.2445 14.8752 12.2445Z" fill="#2B2B2B"/>
<path d="M21.2028 25.1367C21.1683 25.1367 21.1327 25.1331 21.0977 25.1259C20.8187 25.0681 20.6393 24.7948 20.6975 24.5159L20.8419 23.8188C20.8491 23.7863 20.8589 23.7543 20.8718 23.7229L21.1301 23.1103L21.0425 22.6272L20.6944 22.2956L20.0685 22.1559C19.8988 22.1182 19.7591 21.9965 19.6982 21.8336L19.4038 21.0478C19.3801 20.9849 19.3693 20.9179 19.3713 20.8508L19.4012 19.9077C19.4059 19.7541 19.4786 19.6113 19.5998 19.5169L20.4629 18.845L21.1466 18.118C21.2281 18.0309 21.3374 17.9752 21.4555 17.9597L22.0825 17.8777L22.2666 17.6735C22.3816 17.5457 22.5533 17.4843 22.7239 17.5091L23.5809 17.6344C23.7108 17.6534 23.8284 17.721 23.9104 17.8241L24.3244 18.3459L24.7472 18.696C24.8009 18.7399 24.8447 18.794 24.8767 18.8559L25.2216 19.5205C25.251 19.5767 25.2696 19.6381 25.2763 19.7005L25.366 20.4961C25.398 20.7792 25.1943 21.0344 24.9112 21.0664C24.6235 21.0932 24.3724 20.8946 24.3409 20.6116L24.2626 19.9108L24.0099 19.4246L23.6263 19.107C23.5979 19.0843 23.5727 19.058 23.551 19.0302L23.2303 18.6259L22.8482 18.5702L22.7214 18.711C22.6394 18.8022 22.5275 18.861 22.4058 18.8765L21.7731 18.9595L21.1879 19.5814C21.1698 19.6009 21.1502 19.619 21.1291 19.635L20.4253 20.1831L20.4067 20.7822L20.5676 21.2118L21.0605 21.3221C21.1518 21.3422 21.2353 21.3871 21.3034 21.4515L21.8768 21.9971C21.9557 22.0723 22.0093 22.1713 22.0289 22.2786L22.1738 23.0783C22.1913 23.1768 22.1805 23.2784 22.1413 23.3707L21.8427 24.0786L21.7087 24.7263C21.6566 24.9696 21.4421 25.1367 21.2028 25.1367Z" fill="#2B2B2B"/>
<path d="M29.1977 5.00611C29.1508 5.00611 29.1028 4.99993 29.0564 4.98652C28.7826 4.90866 28.6233 4.62352 28.7016 4.34972C28.7455 4.19555 28.6661 4.07747 28.6295 4.03365C28.5928 3.98982 28.4954 3.89236 28.3356 3.90525C28.0571 3.93155 27.8014 3.72169 27.7756 3.4381C27.7498 3.1545 27.9591 2.90391 28.2427 2.87813C28.6867 2.83946 29.1317 3.02302 29.4235 3.37571C29.7159 3.72891 29.8169 4.19865 29.6932 4.63229C29.6287 4.85865 29.4215 5.00611 29.1977 5.00611Z" fill="#2B2B2B"/>
<path d="M25.0513 5.21711C24.9007 5.21711 24.7517 5.15163 24.6501 5.02581C24.4707 4.80409 24.5052 4.47925 24.7264 4.30084C25.736 3.48461 26.9524 2.9927 28.2456 2.87772C28.5255 2.85297 28.7797 3.06231 28.8045 3.34591C28.8298 3.6295 28.6204 3.87958 28.3363 3.90484C27.2489 4.00178 26.2243 4.41531 25.3751 5.10213C25.2792 5.17947 25.1652 5.21711 25.0513 5.21711Z" fill="#2B2B2B"/>
<path d="M24.2883 5.95333C24.2542 5.95333 24.2186 5.94972 24.1841 5.9425L18.2049 4.71377C17.926 4.65653 17.746 4.38377 17.8038 4.10481C17.8615 3.82586 18.1343 3.64591 18.4127 3.70366L24.3924 4.93291C24.6714 4.99014 24.8513 5.26291 24.7936 5.54186C24.7425 5.78575 24.528 5.95333 24.2883 5.95333Z" fill="#2B2B2B"/>
<path d="M22.1147 8.04423C22.0405 8.04423 21.9657 8.02877 21.8946 7.99473L16.9048 5.63266C16.6476 5.51097 16.5372 5.20314 16.6589 4.94584C16.7806 4.68855 17.0894 4.57769 17.3457 4.69989L22.3354 7.06197C22.5927 7.18366 22.7031 7.49148 22.5814 7.74878C22.4932 7.93544 22.3081 8.04423 22.1147 8.04423Z" fill="#2B2B2B"/>
<path d="M17.1252 5.68204C16.9752 5.68204 16.8262 5.61707 16.7246 5.49126C16.5451 5.27005 16.5792 4.94521 16.7999 4.76629L17.9801 3.80877C18.2024 3.62882 18.5267 3.66337 18.7051 3.88405C18.8845 4.10526 18.8505 4.4301 18.6298 4.60902L17.4495 5.56654C17.3536 5.64388 17.2387 5.68204 17.1252 5.68204Z" fill="#2B2B2B"/>
<path d="M6.20456 30.128C4.71441 30.128 3.73627 29.5494 3.43463 28.4811C2.95974 26.7981 4.04719 24.9057 5.1728 23.2764C7.85714 19.3916 11.3969 16.2339 14.5061 13.6574C14.7258 13.4743 15.0506 13.5058 15.2316 13.7254C15.4136 13.9446 15.3832 14.2699 15.1635 14.4509C12.109 16.9826 8.63419 20.081 6.021 23.8626C5.42236 24.7294 4.02038 26.7584 4.42772 28.2011C4.65408 29.0055 5.65078 29.1328 6.44536 29.0911C9.24263 28.9575 12.044 27.4606 14.5159 26.1391L14.6345 26.0757C14.8856 25.9416 15.1986 26.0365 15.3327 26.2871C15.4672 26.5382 15.3719 26.8512 15.1213 26.9852L15.0022 27.0487C12.4343 28.4207 9.52364 29.9764 6.49486 30.1208C6.39586 30.1254 6.29944 30.128 6.20456 30.128Z" fill="#2B2B2B"/>
<path d="M16.1084 16.1931C16.0248 16.1931 15.9403 16.173 15.8614 16.1297C15.1117 15.7198 14.5563 15.0113 14.3377 14.1853C14.2645 13.9099 14.429 13.6279 14.7043 13.5547C14.9786 13.4825 15.2622 13.6459 15.3349 13.9213C15.4814 14.4745 15.8537 14.9499 16.3559 15.2248C16.6054 15.3614 16.6977 15.6744 16.5606 15.924C16.4673 16.0967 16.2909 16.1931 16.1084 16.1931Z" fill="#2B2B2B"/>
<path d="M8.24333 29.0136C7.61942 29.0136 7.00377 28.9048 6.46081 28.6011C5.71677 28.1783 5.40687 27.2677 5.73687 26.4819C6.61395 24.4843 8.06028 22.7694 9.46587 21.1838C11.0277 19.4209 12.7844 17.8482 14.4489 16.388C14.7459 16.1271 15.0532 15.8765 15.3605 15.6254L15.7797 15.2809C15.9988 15.0979 16.3247 15.1294 16.5057 15.3485C16.6877 15.5681 16.6573 15.893 16.4382 16.0745L16.0123 16.4246C15.7147 16.6675 15.4172 16.9098 15.129 17.163C13.4883 18.6016 11.7599 20.15 10.2372 21.8675C8.83011 23.4557 7.49825 25.0345 6.68408 26.8887C6.5593 27.1857 6.67944 27.5394 6.96716 27.7029C7.82877 28.185 9.10339 27.9545 10.1176 27.7003C11.7331 27.2945 13.2382 26.6433 14.4979 26.0596C14.7557 25.9384 15.0625 26.0518 15.1821 26.3107C15.3017 26.569 15.1898 26.8753 14.931 26.9949C13.6285 27.5987 12.0667 28.2731 10.3682 28.7001C9.72111 28.863 8.97706 29.0136 8.24333 29.0136Z" fill="#2B2B2B"/>
<path d="M12.848 16.2421C12.6247 16.2421 12.4195 16.0967 12.3535 15.8719L12.0864 14.9638L11.3398 14.2224C11.2217 14.1048 11.1675 13.9378 11.1943 13.7738L11.2866 13.2107L10.9979 12.8338C10.903 12.71 10.8695 12.5497 10.9061 12.3981L11.2614 10.942L11.0319 10.4944C10.9731 10.3799 10.9592 10.2474 10.9933 10.1226L11.3805 8.71035C11.4403 8.49275 11.6347 8.3391 11.8605 8.33188L11.9085 8.32982L11.9069 7.53627L11.7028 6.40292L11.3052 5.87389L10.6602 5.96052L10.1327 6.30238C9.89806 6.45552 9.58456 6.3921 9.42627 6.1611L9.1798 5.80067C9.01892 5.56503 9.07977 5.24431 9.31489 5.08344C9.53145 4.937 9.8202 4.97516 9.99088 5.16594L10.1966 5.03239C10.2605 4.99063 10.3333 4.96381 10.408 4.95402L11.4671 4.81171C11.6538 4.78696 11.8363 4.86378 11.9487 5.01331L12.6015 5.88214C12.65 5.9466 12.6824 6.02136 12.6969 6.10077L12.9305 7.40014C12.9361 7.43005 12.9387 7.45996 12.9387 7.49038L12.9408 8.82894C12.9413 9.10738 12.7206 9.3358 12.4427 9.34508L12.2756 9.35127L12.042 10.2041L12.2679 10.6445C12.3241 10.7548 12.3395 10.8816 12.3102 11.0018L11.9678 12.4053L12.2416 12.7632C12.3282 12.8761 12.3638 13.0194 12.3411 13.1597L12.256 13.6805L12.9083 14.3286C12.9696 14.3894 13.015 14.4658 13.0393 14.5488L13.3435 15.5836C13.4239 15.8569 13.2677 16.1436 12.9944 16.2235C12.9444 16.2354 12.8959 16.2421 12.848 16.2421Z" fill="#2B2B2B"/>
</svg>
