<svg width="102" height="68" viewBox="0 0 102 68" fill="none" xmlns="http://www.w3.org/2000/svg">
<path d="M101.767 0H52.1154H47.0815H0.424805V67.0829H47.0815H52.1154H101.767V0ZM23.8264 58.2851C14.0295 57.8697 5.81355 50.0893 4.9188 40.3328C4.60597 37.0667 5.10543 33.9468 6.20874 31.1381C6.45765 30.4939 6.79067 29.87 7.12368 29.2662C8.10085 27.5608 9.28653 26 10.5984 24.5452L24.6807 8.79783L38.7008 24.5031C40.2414 26.2304 41.6137 28.1023 42.6531 30.1811C42.9441 30.7849 43.235 31.4291 43.4638 32.1153C44.1718 34.1335 44.5032 36.2964 44.5032 38.4391C44.5016 49.674 35.142 58.7426 23.8264 58.2851ZM97.3794 62.695H52.1154H48.8911V4.3897H52.1154H97.3794V62.695Z" fill="#292929"/>
<path d="M24.6368 26.623C18.0422 26.623 12.6973 31.968 12.6973 38.5626C12.6973 45.1572 18.0422 50.5022 24.6368 50.5022C31.2314 50.5022 36.5983 45.1555 36.5983 38.5626C36.5983 31.968 31.2314 26.623 24.6368 26.623Z" fill="#292929"/>
<rect x="0.421875" y="1.45117" width="50.8112" height="65.3287" fill="#292929"/>
<rect x="51.2383" y="4.35547" width="46.4559" height="58.0699" fill="white"/>
<g clip-path="url(#clip0_204_3928)">
<path d="M33.8271 25.9922L22.7318 36.2854L18.0395 31.2779L14.9355 34.1865L22.5162 42.2763L36.7118 29.1191L33.8271 25.9922Z" fill="white"/>
</g>
<g clip-path="url(#clip1_204_3928)">
<path d="M83.1914 25.9922L72.0961 36.2854L67.4038 31.2779L64.2998 34.1865L71.8804 42.2763L86.076 29.1191L83.1914 25.9922Z" fill="#292929"/>
</g>
<defs>
<clipPath id="clip0_204_3928">
<rect width="21.7762" height="21.7762" fill="white" transform="translate(14.9355 23.2275)"/>
</clipPath>
<clipPath id="clip1_204_3928">
<rect width="21.7762" height="21.7762" fill="white" transform="translate(64.2998 23.2275)"/>
</clipPath>
</defs>
</svg>
