<svg width="32" height="32" fill="none" xmlns="http://www.w3.org/2000/svg"><g clip-path="url(#clip0_81_778)" stroke="#A78F7A" stroke-width="1.5" stroke-miterlimit="10"><path d="M6.797 19.625V2.937a2 2 0 012-2h20.25a2 2 0 012 2v20.25a2 2 0 01-2 2h-2.313"/><path d="M2.758 21.944a1.81 1.81 0 00-1.809 1.81v3.315a2 2 0 002 2h3.165a2 2 0 01.535.073l6.01 1.668c1.621.45 3.35.296 4.865-.432L20.1 29.14a2 2 0 01.866-.197h2.395a3.75 3.75 0 003.23-1.843c.563-.95-.375-1.907-1.48-1.907h-7.075a2 2 0 01-1.262-.449l-3.777-3.075a.127.127 0 01-.047-.099v0c0-.07.057-.127.127-.127h1.972a3.75 3.75 0 003.23-1.843c.562-.95-.375-1.907-1.48-1.907h-6.723a2 2 0 00-1.14.357L3.79 21.62c-.303.21-.662.323-1.03.323v0zm25.476-.506c-.437 0-.835-.166-1.134-.439-.575-.522-1.183-1.249-1.96-1.249v0c-.776 0-1.384.727-1.958 1.249a1.68 1.68 0 01-1.135.439M20.422.938h-2.563a2 2 0 00-2 2v4.437a2 2 0 002 2h2.563a2 2 0 002-2V2.937a2 2 0 00-2-2z"/></g><defs><clipPath id="clip0_81_778"><rect width="32" height="32" rx="1" fill="#fff"/></clipPath></defs></svg>