<svg width="29" height="29" fill="none" xmlns="http://www.w3.org/2000/svg"><path d="M25.375 13.594h-6.344a3.643 3.643 0 00-3.625 3.625 3.643 3.643 0 003.625 3.625h3.625v2.718a.91.91 0 01-.906.907H7.25a2.731 2.731 0 01-2.719-2.719V8.156A2.731 2.731 0 017.25 5.437h1.813a.91.91 0 00.906-.906.91.91 0 00-.906-.906H7.25c-2.486 0-4.531 2.045-4.531 4.531V21.75c0 2.486 2.045 4.531 4.531 4.531h14.5a2.731 2.731 0 002.719-2.718v-2.72h.906a.91.91 0 00.906-.905V14.5a.91.91 0 00-.906-.906zm-.906 5.437H19.03a1.821 1.821 0 01-1.812-1.812c0-.994.818-1.813 1.812-1.813h5.438v3.625z" fill="#A78F7A"/><path d="M6.925 7.313c-1.012.442-.677 1.75.326 1.75h14.5a.91.91 0 01.906.906v.906a.91.91 0 00.907.906.91.91 0 00.906-.906v-.906a2.72 2.72 0 00-2.72-2.719h-.29l-1.586-3.96a.911.911 0 00-1.169-.508L6.925 7.313zm12.579-.063h-7.368l6.389-2.456.979 2.456z" fill="#A78F7A"/></svg>