<svg width="29" height="29" fill="none" xmlns="http://www.w3.org/2000/svg"><g clip-path="url(#clip0_81_862)" fill="#A78F7A"><path d="M22.23 20.3H2.9a2.881 2.881 0 01-2.048-.852A2.918 2.918 0 010 17.4V7.73a2.918 2.918 0 011.79-2.679 2.882 2.882 0 011.11-.22h19.33a2.882 2.882 0 012.048.851c.543.544.849 1.28.852 2.048v9.67a2.918 2.918 0 01-1.79 2.679 2.881 2.881 0 01-1.11.221zM2.9 6.77a.97.97 0 00-.97.96v9.67a.97.97 0 00.97.97h19.33a.97.97 0 00.97-.97V7.73a.97.97 0 00-.97-.97L2.9 6.77z"/><path d="M26.099 24.17H4.829a.97.97 0 010-1.93H26.1a.97.97 0 00.97-.97V9.67a.968.968 0 011.683-.746.969.969 0 01.247.746v11.6a2.918 2.918 0 01-1.79 2.679 2.883 2.883 0 01-1.11.22zm-13.53-7.74a3.87 3.87 0 110-7.74 3.87 3.87 0 010 7.74zm0-5.8a1.93 1.93 0 101.93 1.94 1.94 1.94 0 00-1.93-1.94z"/></g><defs><clipPath id="clip0_81_862"><path fill="#fff" d="M0 0h29v29H0z"/></clipPath></defs></svg>