<svg width="30" height="30" fill="none" xmlns="http://www.w3.org/2000/svg"><path d="M29.95 17L27.673 4.085a3.235 3.235 0 00-3.744-2.622L4.398 4.907a3.235 3.235 0 00-2.621 3.744l.167.949A3.236 3.236 0 000 12.563v12.792a3.235 3.235 0 003.231 3.231H22.62a3.235 3.235 0 003.231-3.231v-4.352l1.478-.26a3.21 3.21 0 002.086-1.329A3.21 3.21 0 0029.95 17zm-1.98 1.403a1.46 1.46 0 01-.947.604l-1.172.207v-6.651a3.235 3.235 0 00-3.231-3.231H3.687l-.174-.987a1.46 1.46 0 01.243-1.098 1.46 1.46 0 01.948-.604l19.531-3.444a1.471 1.471 0 011.702 1.191l2.277 12.916a1.46 1.46 0 01-.243 1.097zm-5.35 8.42H3.231a1.47 1.47 0 01-1.468-1.468V19.09h22.326v6.265a1.47 1.47 0 01-1.469 1.468zM3.231 11.095H22.62c.81 0 1.469.66 1.469 1.469v.767H1.763v-.767c0-.81.659-1.469 1.468-1.469zm20.858 3.998v2.236H1.763v-2.236h22.326z" fill="#A78F7A"/><path d="M8.481 23.284H4.483a.881.881 0 000 1.763H8.48a.881.881 0 000-1.763z" fill="#A78F7A"/></svg>