<svg width="29" height="29" fill="none" xmlns="http://www.w3.org/2000/svg"><path d="M23.563.906H5.438A4.536 4.536 0 00.905 5.438v12.687a.906.906 0 101.813 0V5.437a2.722 2.722 0 012.72-2.717h3.625v6.344a2.722 2.722 0 002.718 2.718h5.438a2.722 2.722 0 002.718-2.719V2.72h3.625a2.722 2.722 0 012.72 2.719v18.125a2.721 2.721 0 01-2.72 2.718H10.876a.906.906 0 100 1.813h12.688a4.536 4.536 0 004.53-4.532V5.438a4.536 4.536 0 00-4.53-4.53zm-5.438 8.156a.907.907 0 01-.906.907H11.78a.907.907 0 01-.906-.906V2.718h7.25v6.344z" fill="#A78F7A"/></svg>