<svg width="30" height="30" fill="none" xmlns="http://www.w3.org/2000/svg"><path d="M20.96 14.988a.703.703 0 10.001-1.406.703.703 0 000 1.406zm.176-3.979h-3.28a.703.703 0 100 1.406h3.28a.703.703 0 000-1.406zM9.23 28.827c-.349 0-.701-.022-1.055-.07-3.613-.481-6.387-3.581-6.599-7.373l-.363-6.522c-.04-.731.423-1.382 1.154-1.617a2.12 2.12 0 001.389-1.455c.198-.744.825-1.244 1.559-1.244h7.806c.735 0 1.36.5 1.56 1.244.18.68.713 1.237 1.389 1.455.728.235 1.192.884 1.153 1.615l-.375 6.751a7.668 7.668 0 01-2.76 5.464 7.562 7.562 0 01-4.858 1.752zM5.316 11.952c-.108 0-.175.108-.2.2a3.493 3.493 0 01-2.315 2.432c-.07.022-.188.09-.181.2l.362 6.522c.174 3.118 2.436 5.666 5.38 6.058a6.207 6.207 0 004.83-1.373 6.252 6.252 0 002.252-4.459l.375-6.749c.005-.102-.094-.171-.181-.2a3.493 3.493 0 01-2.317-2.43c-.024-.093-.092-.2-.2-.2H5.316z" fill="#A78F7A"/><path d="M21.56 19.453l-2.574-.002a.703.703 0 11.002-1.406l2.574.002a2.115 2.115 0 002.11-2.11V4.688a2.108 2.108 0 00-2.109-2.109H4.688a2.11 2.11 0 00-2.11 2.11v6.095a.703.703 0 01-1.406 0V4.688a3.516 3.516 0 013.516-3.516h16.875a3.516 3.516 0 013.515 3.516v11.25a3.525 3.525 0 01-3.518 3.515z" fill="#A78F7A"/><path d="M25.313 25.078h-6.797a.703.703 0 010-1.406h6.797a2.109 2.109 0 002.109-2.11v-11.25a2.109 2.109 0 00-2.11-2.109h-.937V6.797h.938a3.516 3.516 0 013.515 3.516v11.25a3.516 3.516 0 01-3.515 3.515z" fill="#A78F7A"/><path d="M1.895 5.86h22.458v1.407H1.895V5.86zm22.457 6.031h3.771v1.407h-3.771V11.89z" fill="#A78F7A"/></svg>