<svg width="33" height="33" fill="none" xmlns="http://www.w3.org/2000/svg"><path d="M27.301 7.941a.515.515 0 01-.333-.909 5.464 5.464 0 001.734-2.683.52.52 0 01.637-.355.516.516 0 01.355.638 6.494 6.494 0 01-2.06 3.187.512.512 0 01-.333.122z" fill="#2B2B2B"/><path d="M17.65 14.368a.516.516 0 01-.273-.954c2.98-1.846 6.129-3.943 9.626-6.41a.517.517 0 01.594.843c-3.513 2.48-6.679 4.587-9.677 6.444a.509.509 0 01-.27.077zm7.702 1.268a.515.515 0 01-.332-.91l1.163-.979a.515.515 0 11.664.788l-1.164.98a.512.512 0 01-.33.12z" fill="#2B2B2B"/><path d="M25.352 15.636a.516.516 0 01-.5-.387l-1.378-5.346a.517.517 0 01.999-.257l1.379 5.345a.517.517 0 01-.5.645zm1.162-.979a.515.515 0 01-.516-.508l-.08-6.104a.516.516 0 01.508-.523h.008c.282 0 .512.226.515.508l.08 6.104a.516.516 0 01-.508.523h-.007zm-7.897 2.063a.516.516 0 01-.507-.427l-.465-2.662a.515.515 0 111.015-.177l.466 2.662a.516.516 0 01-.509.604z" fill="#2B2B2B"/><path d="M19.473 16.131a.517.517 0 01-.502-.636l.819-3.4a.517.517 0 011.003.242l-.819 3.4a.516.516 0 01-.5.394z" fill="#2B2B2B"/><path d="M18.618 16.72a.514.514 0 01-.293-.94l.856-.59a.517.517 0 01.584.85l-.855.59a.513.513 0 01-.292.09zm-8.716 9.122a.516.516 0 01-.46-.748l.878-1.736a.515.515 0 11.92.465l-.877 1.736a.516.516 0 01-.461.283z" fill="#2B2B2B"/><path d="M10.777 24.106a.516.516 0 01-.011-1.031l.733-.017.38-.285a.515.515 0 01.229-.097l.734-.116 1.124-.516a.593.593 0 01.088-.031l.909-.23.797-.707.127-.314a82.829 82.829 0 00-.913-.799.516.516 0 01-.081-.693l.218-.301-.014-.482-.361-.71-.436-.683a.515.515 0 11.872-.552l.46.725.437.855a.522.522 0 01.057.22l.022.772a.518.518 0 01-.098.317l-.044.06c.282.247.563.494.841.744a.516.516 0 01.133.578l-.308.762a.51.51 0 01-.137.192l-.98.87a.522.522 0 01-.216.114l-.984.25-1.146.525a.516.516 0 01-.134.04l-.678.108-.41.307a.516.516 0 01-.297.103l-.899.021-.014.001z" fill="#2B2B2B"/><path d="M15.004 27.032c-2.627 0-5.244-.87-7.32-2.514l-.172-.138a.515.515 0 11.64-.807l.173.137c2.738 2.167 6.51 2.861 9.847 1.808 3.741-1.18 6.602-4.442 7.29-8.312a.515.515 0 111.015.18c-.753 4.243-3.891 7.822-7.995 9.116-1.13.356-2.305.53-3.478.53zm-8.648-4.011a.515.515 0 01-.396-.185C2.83 19.082 2.366 13.72 4.806 9.494a11.755 11.755 0 0110.306-5.86.516.516 0 01.509.523.524.524 0 01-.523.508h-.14c-3.755 0-7.379 2.086-9.26 5.345-2.19 3.793-1.757 8.796 1.053 12.165a.515.515 0 01-.395.846zm10.94-9.889a.516.516 0 01-.178-.032l-2.42-.887a.515.515 0 11.355-.968l2.42.888a.515.515 0 01-.177 1z" fill="#2B2B2B"/><path d="M17.367 14.452a1.06 1.06 0 01-.804-.38 1.041 1.041 0 01-.012-1.377.515.515 0 11.776.68c.003.01.029.041.045.046a.519.519 0 01.714.164.51.51 0 01-.164.706c-.175.108-.366.16-.555.16z" fill="#2B2B2B"/><path d="M16.941 13.545a.514.514 0 01-.392-.85c2.461-2.891 5.225-5.553 7.896-8.127l.246-.237a.516.516 0 11.716.742l-.247.237c-2.653 2.557-5.397 5.2-7.826 8.054a.515.515 0 01-.393.181zm.252-2.13a.515.515 0 01-.463-.288l-.52-1.056-.328-.528a.516.516 0 01-.011-.52l.343-.62a.517.517 0 01.41-.263l.766-.063.08-.058-.062-.145a.514.514 0 01-.464-.066l-.81-.57-.236.044a.515.515 0 01-.446-.129l-.372-.344a.52.52 0 01-.136-.205l-.185-.52-.69-.577-.799-.115a.515.515 0 01-.441-.497l-.016-.613a.516.516 0 01.502-.53c.262.001.522.218.529.503l.005.179.512.074a.512.512 0 01.256.115l.911.76a.518.518 0 01.156.223l.19.534.088.082.196-.037a.511.511 0 01.393.085l.768.541.198-.072a.516.516 0 01.652.284l.41.975a.516.516 0 01-.171.618l-.528.383a.523.523 0 01-.261.097l-.635.052-.064.114.194.314.543 1.098a.516.516 0 01-.235.69.568.568 0 01-.23.05z" fill="#2B2B2B"/><path d="M15.609 11.506a.515.515 0 01-.03-1.03l3.343-.194a.516.516 0 01.06 1.03l-3.343.193-.03.001z" fill="#2B2B2B"/><path d="M14.875 12.245a.517.517 0 01-.366-.88l.73-.738a.517.517 0 01.734.726l-.731.739a.517.517 0 01-.367.152zm6.328 12.892a.516.516 0 01-.505-.62l.144-.698a.584.584 0 01.03-.096l.258-.613-.087-.483-.349-.331-.625-.14a.515.515 0 01-.37-.322l-.295-.786a.515.515 0 01-.033-.197l.03-.943a.515.515 0 01.199-.391l.863-.672.684-.727a.514.514 0 01.309-.158l.627-.082.184-.204a.515.515 0 01.457-.165l.857.125c.13.02.247.087.33.19l.413.522.423.35a.506.506 0 01.13.16l.345.664a.506.506 0 01.054.18l.09.796a.516.516 0 11-1.025.116l-.078-.701-.253-.486-.384-.318a.463.463 0 01-.075-.077l-.32-.404-.383-.056-.127.141a.511.511 0 01-.315.166l-.633.082-.585.622a.459.459 0 01-.059.054l-.704.548-.018.6.16.429.494.11c.09.02.174.065.242.13l.574.545a.519.519 0 01.152.282l.145.8c.017.098.006.2-.033.292l-.298.708-.134.647a.518.518 0 01-.506.41zm7.995-20.131a.515.515 0 01-.496-.656.346.346 0 00-.073-.316.344.344 0 00-.293-.129.516.516 0 11-.093-1.027c.444-.039.889.145 1.18.498.293.353.394.823.27 1.256a.516.516 0 01-.495.374z" fill="#2B2B2B"/><path d="M25.051 5.217a.514.514 0 01-.325-.916 6.492 6.492 0 013.52-1.423.515.515 0 11.09 1.027 5.465 5.465 0 00-2.96 1.197.513.513 0 01-.325.115z" fill="#2B2B2B"/><path d="M24.288 5.953a.514.514 0 01-.104-.01l-5.98-1.23a.515.515 0 11.209-1.01l5.98 1.23a.515.515 0 01-.105 1.02zm-2.173 2.091a.507.507 0 01-.22-.05l-4.99-2.361a.516.516 0 01.44-.933l4.99 2.362a.516.516 0 01-.22.982z" fill="#2B2B2B"/><path d="M17.125 5.682a.515.515 0 01-.325-.916l1.18-.957a.515.515 0 11.65.8l-1.18.958a.516.516 0 01-.325.115zM6.205 30.128c-1.49 0-2.469-.579-2.77-1.647-.475-1.683.612-3.575 1.738-5.205 2.684-3.884 6.224-7.042 9.333-9.619a.514.514 0 11.657.793c-3.054 2.533-6.529 5.631-9.142 9.413-.599.866-2 2.895-1.593 4.338.226.805 1.223.932 2.017.89 2.798-.134 5.599-1.63 8.07-2.952l.12-.063a.517.517 0 01.486.91l-.119.063c-2.568 1.372-5.478 2.927-8.507 3.072a6.251 6.251 0 01-.29.007z" fill="#2B2B2B"/><path d="M16.108 16.193a.51.51 0 01-.247-.063 3.141 3.141 0 01-1.523-1.945.516.516 0 11.997-.264 2.108 2.108 0 001.02 1.304.515.515 0 01-.247.968z" fill="#2B2B2B"/><path d="M8.243 29.014c-.624 0-1.24-.11-1.782-.413a1.687 1.687 0 01-.724-2.12c.877-1.997 2.323-3.712 3.729-5.297 1.562-1.763 3.318-3.336 4.983-4.796.297-.26.604-.512.912-.763l.419-.344a.514.514 0 11.658.793l-.426.35c-.297.244-.595.486-.883.739-1.64 1.439-3.37 2.987-4.892 4.704-1.407 1.589-2.739 3.168-3.553 5.022a.653.653 0 00.283.814c.862.482 2.136.252 3.15-.003 1.616-.405 3.121-1.057 4.38-1.64a.515.515 0 11.433.935c-1.301.604-2.863 1.278-4.562 1.705-.647.163-1.39.314-2.125.314zm4.605-12.772a.515.515 0 01-.495-.37l-.267-.908-.746-.742a.516.516 0 01-.146-.448l.093-.563-.29-.377a.517.517 0 01-.09-.436l.354-1.456-.23-.448a.516.516 0 01-.038-.371l.387-1.413a.515.515 0 01.48-.378l.049-.002-.002-.794-.204-1.133-.398-.53-.645.088-.527.341a.515.515 0 01-.707-.14L9.18 5.8a.516.516 0 01.81-.635l.207-.134a.509.509 0 01.211-.078l1.06-.142a.515.515 0 01.48.201l.653.87a.51.51 0 01.096.218l.234 1.3a.529.529 0 01.008.09l.002 1.338c0 .278-.22.507-.498.516l-.167.006-.234.853.226.44c.056.11.071.238.042.358l-.342 1.403.274.358a.515.515 0 01.1.397l-.086.52.652.649a.5.5 0 01.131.22l.305 1.035a.515.515 0 01-.496.658z" fill="#2B2B2B"/></svg>